G04 EAGLE Gerber RS-274X export*
G75*
%MOMM*%
%FSLAX34Y34*%
%LPD*%
%INBottom Copper*%
%IPPOS*%
%AMOC8*
5,1,8,0,0,1.08239X$1,22.5*%
G01*
%ADD10R,1.616000X1.616000*%
%ADD11C,1.616000*%
%ADD12C,2.032000*%
%ADD13C,2.032000*%
%ADD14C,0.965200*%
%ADD15C,0.806400*%

G36*
X2489098Y10164D02*
X2489098Y10164D01*
X2489117Y10162D01*
X2489219Y10184D01*
X2489321Y10200D01*
X2489338Y10210D01*
X2489358Y10214D01*
X2489447Y10267D01*
X2489538Y10316D01*
X2489552Y10330D01*
X2489569Y10340D01*
X2489636Y10419D01*
X2489708Y10494D01*
X2489716Y10512D01*
X2489729Y10527D01*
X2489768Y10623D01*
X2489811Y10717D01*
X2489813Y10737D01*
X2489821Y10755D01*
X2489839Y10922D01*
X2489839Y289078D01*
X2489836Y289098D01*
X2489838Y289117D01*
X2489816Y289219D01*
X2489800Y289321D01*
X2489790Y289338D01*
X2489786Y289358D01*
X2489733Y289447D01*
X2489684Y289538D01*
X2489670Y289552D01*
X2489660Y289569D01*
X2489581Y289636D01*
X2489506Y289708D01*
X2489488Y289716D01*
X2489473Y289729D01*
X2489377Y289768D01*
X2489283Y289811D01*
X2489263Y289813D01*
X2489245Y289821D01*
X2489078Y289839D01*
X1437642Y289839D01*
X1437546Y289824D01*
X1437449Y289814D01*
X1437425Y289804D01*
X1437399Y289800D01*
X1437313Y289754D01*
X1437224Y289714D01*
X1437205Y289697D01*
X1437182Y289684D01*
X1437115Y289614D01*
X1437043Y289548D01*
X1437030Y289525D01*
X1437012Y289506D01*
X1436971Y289418D01*
X1436924Y289332D01*
X1436920Y289307D01*
X1436909Y289283D01*
X1436898Y289186D01*
X1436881Y289090D01*
X1436884Y289064D01*
X1436882Y289039D01*
X1436902Y288943D01*
X1436916Y288847D01*
X1436928Y288824D01*
X1436934Y288798D01*
X1436984Y288715D01*
X1437028Y288628D01*
X1437047Y288609D01*
X1437060Y288587D01*
X1437134Y288524D01*
X1437204Y288456D01*
X1437232Y288440D01*
X1437247Y288427D01*
X1437278Y288415D01*
X1437350Y288375D01*
X1439892Y287322D01*
X1480304Y246910D01*
X1480341Y246884D01*
X1480372Y246850D01*
X1480440Y246812D01*
X1480503Y246767D01*
X1480547Y246753D01*
X1480588Y246731D01*
X1480664Y246717D01*
X1480739Y246695D01*
X1480784Y246696D01*
X1480830Y246688D01*
X1480907Y246699D01*
X1480984Y246701D01*
X1481028Y246717D01*
X1481073Y246723D01*
X1481142Y246759D01*
X1481215Y246785D01*
X1481251Y246814D01*
X1481292Y246835D01*
X1481347Y246890D01*
X1481407Y246939D01*
X1481432Y246978D01*
X1481464Y247010D01*
X1481530Y247130D01*
X1481540Y247146D01*
X1481542Y247151D01*
X1481545Y247157D01*
X1482678Y249892D01*
X1485108Y252322D01*
X1488282Y253637D01*
X1891718Y253637D01*
X1894892Y252322D01*
X1897429Y249785D01*
X1927322Y219892D01*
X1928637Y216718D01*
X1928637Y153282D01*
X1927322Y150108D01*
X1924785Y147571D01*
X1902429Y125215D01*
X1899892Y122678D01*
X1896718Y121363D01*
X1890644Y121363D01*
X1890529Y121344D01*
X1890413Y121327D01*
X1890408Y121325D01*
X1890402Y121324D01*
X1890299Y121269D01*
X1890194Y121216D01*
X1890190Y121211D01*
X1890184Y121208D01*
X1890104Y121124D01*
X1890022Y121040D01*
X1890018Y121034D01*
X1890015Y121030D01*
X1890007Y121013D01*
X1889941Y120893D01*
X1889680Y120264D01*
X1886336Y116920D01*
X1881965Y115109D01*
X1877235Y115109D01*
X1872864Y116920D01*
X1869520Y120264D01*
X1867709Y124635D01*
X1867709Y129365D01*
X1869520Y133736D01*
X1872864Y137080D01*
X1877235Y138891D01*
X1881965Y138891D01*
X1882439Y138695D01*
X1882502Y138680D01*
X1882563Y138655D01*
X1882646Y138646D01*
X1882678Y138639D01*
X1882697Y138640D01*
X1882730Y138637D01*
X1891107Y138637D01*
X1891197Y138651D01*
X1891288Y138659D01*
X1891318Y138671D01*
X1891350Y138676D01*
X1891431Y138719D01*
X1891515Y138755D01*
X1891547Y138781D01*
X1891567Y138792D01*
X1891590Y138815D01*
X1891646Y138860D01*
X1911140Y158354D01*
X1911193Y158428D01*
X1911253Y158498D01*
X1911265Y158528D01*
X1911284Y158554D01*
X1911311Y158641D01*
X1911345Y158726D01*
X1911349Y158767D01*
X1911356Y158789D01*
X1911355Y158821D01*
X1911363Y158893D01*
X1911363Y162311D01*
X1911352Y162382D01*
X1911350Y162454D01*
X1911332Y162503D01*
X1911324Y162554D01*
X1911290Y162617D01*
X1911265Y162685D01*
X1911233Y162725D01*
X1911208Y162771D01*
X1911156Y162821D01*
X1911112Y162877D01*
X1911068Y162905D01*
X1911030Y162941D01*
X1910965Y162971D01*
X1910905Y163010D01*
X1910854Y163022D01*
X1910807Y163044D01*
X1910736Y163052D01*
X1910666Y163070D01*
X1910614Y163066D01*
X1910563Y163071D01*
X1910492Y163056D01*
X1910421Y163051D01*
X1910373Y163030D01*
X1910322Y163019D01*
X1910261Y162982D01*
X1910195Y162954D01*
X1910139Y162910D01*
X1910111Y162893D01*
X1910096Y162875D01*
X1910064Y162850D01*
X1897429Y150215D01*
X1894892Y147678D01*
X1891718Y146363D01*
X1890479Y146363D01*
X1890364Y146344D01*
X1890248Y146327D01*
X1890242Y146325D01*
X1890236Y146324D01*
X1890133Y146269D01*
X1890028Y146216D01*
X1890024Y146211D01*
X1890018Y146208D01*
X1889939Y146124D01*
X1889856Y146040D01*
X1889853Y146034D01*
X1889849Y146030D01*
X1889841Y146013D01*
X1889775Y145893D01*
X1889680Y145664D01*
X1886336Y142320D01*
X1881965Y140509D01*
X1877235Y140509D01*
X1872864Y142320D01*
X1869520Y145664D01*
X1867709Y150035D01*
X1867709Y154765D01*
X1869520Y159136D01*
X1872864Y162480D01*
X1877235Y164291D01*
X1881965Y164291D01*
X1883404Y163695D01*
X1883468Y163680D01*
X1883529Y163655D01*
X1883612Y163646D01*
X1883644Y163639D01*
X1883663Y163640D01*
X1883695Y163637D01*
X1886107Y163637D01*
X1886197Y163651D01*
X1886288Y163659D01*
X1886318Y163671D01*
X1886350Y163676D01*
X1886431Y163719D01*
X1886515Y163755D01*
X1886547Y163781D01*
X1886567Y163792D01*
X1886590Y163815D01*
X1886645Y163860D01*
X1896140Y173355D01*
X1896193Y173428D01*
X1896253Y173498D01*
X1896265Y173528D01*
X1896284Y173554D01*
X1896311Y173641D01*
X1896345Y173726D01*
X1896349Y173767D01*
X1896356Y173789D01*
X1896355Y173821D01*
X1896363Y173893D01*
X1896363Y206107D01*
X1896349Y206197D01*
X1896341Y206288D01*
X1896329Y206318D01*
X1896324Y206350D01*
X1896281Y206431D01*
X1896245Y206515D01*
X1896219Y206547D01*
X1896208Y206567D01*
X1896185Y206590D01*
X1896140Y206645D01*
X1881645Y221140D01*
X1881572Y221193D01*
X1881502Y221253D01*
X1881472Y221265D01*
X1881446Y221284D01*
X1881359Y221311D01*
X1881274Y221345D01*
X1881233Y221349D01*
X1881211Y221356D01*
X1881178Y221355D01*
X1881107Y221363D01*
X1483282Y221363D01*
X1480108Y222678D01*
X1431645Y271140D01*
X1431572Y271193D01*
X1431502Y271253D01*
X1431472Y271265D01*
X1431446Y271284D01*
X1431359Y271311D01*
X1431274Y271345D01*
X1431233Y271349D01*
X1431211Y271356D01*
X1431178Y271355D01*
X1431107Y271363D01*
X1413893Y271363D01*
X1413803Y271349D01*
X1413712Y271341D01*
X1413682Y271329D01*
X1413650Y271324D01*
X1413569Y271281D01*
X1413485Y271245D01*
X1413453Y271219D01*
X1413433Y271208D01*
X1413410Y271185D01*
X1413355Y271140D01*
X1409892Y267678D01*
X1406718Y266363D01*
X1352689Y266363D01*
X1352618Y266352D01*
X1352546Y266350D01*
X1352497Y266332D01*
X1352446Y266324D01*
X1352383Y266290D01*
X1352315Y266265D01*
X1352275Y266233D01*
X1352229Y266208D01*
X1352179Y266156D01*
X1352123Y266112D01*
X1352095Y266068D01*
X1352059Y266030D01*
X1352029Y265965D01*
X1351990Y265905D01*
X1351978Y265854D01*
X1351956Y265807D01*
X1351948Y265736D01*
X1351930Y265666D01*
X1351934Y265614D01*
X1351929Y265563D01*
X1351944Y265492D01*
X1351949Y265421D01*
X1351970Y265373D01*
X1351981Y265322D01*
X1352018Y265261D01*
X1352046Y265195D01*
X1352090Y265139D01*
X1352107Y265111D01*
X1352125Y265096D01*
X1352150Y265064D01*
X1397322Y219892D01*
X1398637Y216718D01*
X1398637Y213282D01*
X1397322Y210108D01*
X1394892Y207678D01*
X1392157Y206545D01*
X1392118Y206521D01*
X1392075Y206505D01*
X1392014Y206457D01*
X1391948Y206416D01*
X1391919Y206380D01*
X1391883Y206352D01*
X1391841Y206286D01*
X1391792Y206226D01*
X1391775Y206183D01*
X1391750Y206145D01*
X1391731Y206069D01*
X1391703Y205997D01*
X1391701Y205951D01*
X1391690Y205906D01*
X1391696Y205829D01*
X1391693Y205751D01*
X1391706Y205707D01*
X1391709Y205661D01*
X1391740Y205589D01*
X1391762Y205515D01*
X1391788Y205477D01*
X1391806Y205435D01*
X1391891Y205328D01*
X1391902Y205313D01*
X1391906Y205310D01*
X1391910Y205304D01*
X1411961Y185253D01*
X1411977Y185242D01*
X1411989Y185226D01*
X1412077Y185170D01*
X1412161Y185110D01*
X1412180Y185104D01*
X1412196Y185093D01*
X1412297Y185068D01*
X1412396Y185037D01*
X1412416Y185038D01*
X1412435Y185033D01*
X1412538Y185041D01*
X1412642Y185044D01*
X1412660Y185051D01*
X1412680Y185052D01*
X1412775Y185093D01*
X1412873Y185128D01*
X1412888Y185141D01*
X1412906Y185149D01*
X1413037Y185253D01*
X1415664Y187880D01*
X1420035Y189691D01*
X1424765Y189691D01*
X1429136Y187880D01*
X1432480Y184536D01*
X1434291Y180165D01*
X1434291Y175435D01*
X1432480Y171064D01*
X1429136Y167720D01*
X1424765Y165909D01*
X1420035Y165909D01*
X1415664Y167720D01*
X1412320Y171064D01*
X1411572Y172869D01*
X1411548Y172908D01*
X1411532Y172951D01*
X1411483Y173012D01*
X1411442Y173078D01*
X1411407Y173108D01*
X1411378Y173143D01*
X1411313Y173185D01*
X1411253Y173235D01*
X1411210Y173252D01*
X1411171Y173276D01*
X1411096Y173295D01*
X1411023Y173323D01*
X1410977Y173325D01*
X1410933Y173336D01*
X1410855Y173330D01*
X1410778Y173334D01*
X1410733Y173321D01*
X1410688Y173317D01*
X1410616Y173287D01*
X1410541Y173265D01*
X1410504Y173239D01*
X1410461Y173221D01*
X1410354Y173135D01*
X1410339Y173125D01*
X1410336Y173121D01*
X1410330Y173116D01*
X1409892Y172678D01*
X1407157Y171545D01*
X1407118Y171521D01*
X1407075Y171505D01*
X1407015Y171457D01*
X1406948Y171416D01*
X1406919Y171380D01*
X1406883Y171352D01*
X1406841Y171286D01*
X1406792Y171226D01*
X1406775Y171183D01*
X1406750Y171145D01*
X1406731Y171069D01*
X1406703Y170997D01*
X1406701Y170951D01*
X1406690Y170906D01*
X1406696Y170829D01*
X1406693Y170751D01*
X1406706Y170707D01*
X1406709Y170661D01*
X1406740Y170589D01*
X1406761Y170515D01*
X1406788Y170477D01*
X1406806Y170435D01*
X1406891Y170328D01*
X1406902Y170313D01*
X1406906Y170310D01*
X1406910Y170304D01*
X1413355Y163860D01*
X1413428Y163807D01*
X1413498Y163747D01*
X1413528Y163735D01*
X1413554Y163716D01*
X1413641Y163689D01*
X1413726Y163655D01*
X1413767Y163651D01*
X1413789Y163644D01*
X1413822Y163645D01*
X1413893Y163637D01*
X1418304Y163637D01*
X1418369Y163647D01*
X1418435Y163648D01*
X1418515Y163671D01*
X1418547Y163676D01*
X1418564Y163686D01*
X1418596Y163695D01*
X1420035Y164291D01*
X1424765Y164291D01*
X1429136Y162480D01*
X1432480Y159136D01*
X1434291Y154765D01*
X1434291Y150035D01*
X1432480Y145664D01*
X1429136Y142320D01*
X1424765Y140509D01*
X1420035Y140509D01*
X1415664Y142320D01*
X1412320Y145664D01*
X1412225Y145893D01*
X1412163Y145993D01*
X1412103Y146093D01*
X1412098Y146097D01*
X1412095Y146102D01*
X1412005Y146177D01*
X1411916Y146253D01*
X1411910Y146255D01*
X1411906Y146259D01*
X1411797Y146301D01*
X1411688Y146345D01*
X1411681Y146346D01*
X1411676Y146347D01*
X1411658Y146348D01*
X1411521Y146363D01*
X1408282Y146363D01*
X1405108Y147678D01*
X1306645Y246140D01*
X1306572Y246193D01*
X1306502Y246253D01*
X1306472Y246265D01*
X1306446Y246284D01*
X1306359Y246311D01*
X1306274Y246345D01*
X1306233Y246349D01*
X1306211Y246356D01*
X1306178Y246355D01*
X1306107Y246363D01*
X1028893Y246363D01*
X1028803Y246349D01*
X1028712Y246341D01*
X1028682Y246329D01*
X1028650Y246324D01*
X1028569Y246281D01*
X1028485Y246245D01*
X1028453Y246219D01*
X1028433Y246208D01*
X1028410Y246185D01*
X1028355Y246140D01*
X999892Y217678D01*
X996718Y216363D01*
X638893Y216363D01*
X638803Y216349D01*
X638712Y216341D01*
X638682Y216329D01*
X638650Y216324D01*
X638569Y216281D01*
X638485Y216245D01*
X638453Y216219D01*
X638433Y216208D01*
X638410Y216185D01*
X638354Y216140D01*
X636910Y214696D01*
X636884Y214659D01*
X636850Y214628D01*
X636812Y214560D01*
X636767Y214497D01*
X636753Y214453D01*
X636731Y214412D01*
X636717Y214336D01*
X636695Y214261D01*
X636696Y214216D01*
X636688Y214170D01*
X636699Y214093D01*
X636701Y214016D01*
X636717Y213972D01*
X636723Y213927D01*
X636759Y213858D01*
X636785Y213785D01*
X636814Y213749D01*
X636835Y213708D01*
X636890Y213653D01*
X636939Y213593D01*
X636978Y213568D01*
X637010Y213536D01*
X637130Y213470D01*
X637146Y213460D01*
X637151Y213458D01*
X637157Y213455D01*
X639892Y212322D01*
X643354Y208860D01*
X643428Y208807D01*
X643498Y208747D01*
X643528Y208735D01*
X643554Y208716D01*
X643641Y208689D01*
X643726Y208655D01*
X643767Y208651D01*
X643789Y208644D01*
X643821Y208645D01*
X643893Y208637D01*
X1021718Y208637D01*
X1024892Y207322D01*
X1027322Y204892D01*
X1028637Y201718D01*
X1028637Y198282D01*
X1027322Y195108D01*
X1027150Y194936D01*
X1027109Y194878D01*
X1027059Y194826D01*
X1027037Y194779D01*
X1027007Y194737D01*
X1026986Y194668D01*
X1026956Y194603D01*
X1026950Y194551D01*
X1026935Y194501D01*
X1026936Y194430D01*
X1026929Y194359D01*
X1026940Y194308D01*
X1026941Y194256D01*
X1026966Y194188D01*
X1026981Y194118D01*
X1027008Y194073D01*
X1027025Y194025D01*
X1027070Y193969D01*
X1027107Y193907D01*
X1027147Y193873D01*
X1027179Y193833D01*
X1027239Y193794D01*
X1027294Y193747D01*
X1027342Y193728D01*
X1027386Y193700D01*
X1027455Y193682D01*
X1027522Y193655D01*
X1027593Y193647D01*
X1027624Y193639D01*
X1027648Y193641D01*
X1027689Y193637D01*
X1031718Y193637D01*
X1034892Y192322D01*
X1037606Y189608D01*
X1037702Y189539D01*
X1037795Y189470D01*
X1037801Y189468D01*
X1037806Y189464D01*
X1037918Y189430D01*
X1038029Y189394D01*
X1038035Y189394D01*
X1038041Y189392D01*
X1038158Y189395D01*
X1038275Y189396D01*
X1038282Y189398D01*
X1038287Y189398D01*
X1038305Y189405D01*
X1038436Y189443D01*
X1039035Y189691D01*
X1043765Y189691D01*
X1048136Y187880D01*
X1051480Y184536D01*
X1051760Y183861D01*
X1051808Y183783D01*
X1051849Y183702D01*
X1051873Y183679D01*
X1051890Y183652D01*
X1051960Y183593D01*
X1052025Y183530D01*
X1052061Y183510D01*
X1052079Y183495D01*
X1052109Y183483D01*
X1052172Y183449D01*
X1054892Y182322D01*
X1068355Y168860D01*
X1068428Y168807D01*
X1068498Y168747D01*
X1068528Y168735D01*
X1068554Y168716D01*
X1068641Y168689D01*
X1068726Y168655D01*
X1068767Y168651D01*
X1068789Y168644D01*
X1068822Y168645D01*
X1068893Y168637D01*
X1191107Y168637D01*
X1191197Y168651D01*
X1191288Y168659D01*
X1191318Y168671D01*
X1191350Y168676D01*
X1191431Y168719D01*
X1191515Y168755D01*
X1191547Y168781D01*
X1191567Y168792D01*
X1191590Y168815D01*
X1191645Y168860D01*
X1207879Y185093D01*
X1207897Y185118D01*
X1207921Y185139D01*
X1208015Y185278D01*
X1208146Y185529D01*
X1209141Y186360D01*
X1209157Y186378D01*
X1209192Y186406D01*
X1210108Y187322D01*
X1210370Y187430D01*
X1210397Y187447D01*
X1210426Y187457D01*
X1210566Y187549D01*
X1210784Y187731D01*
X1212021Y188118D01*
X1212043Y188129D01*
X1212085Y188141D01*
X1213282Y188637D01*
X1213566Y188637D01*
X1213597Y188642D01*
X1213628Y188639D01*
X1213793Y188671D01*
X1214064Y188756D01*
X1214300Y188735D01*
X1214399Y188742D01*
X1214498Y188743D01*
X1214527Y188751D01*
X1214545Y188753D01*
X1214575Y188765D01*
X1214659Y188790D01*
X1216835Y189691D01*
X1221565Y189691D01*
X1225936Y187880D01*
X1229280Y184536D01*
X1231091Y180165D01*
X1231091Y175435D01*
X1229280Y171064D01*
X1225936Y167720D01*
X1221565Y165909D01*
X1216835Y165909D01*
X1214680Y166802D01*
X1214567Y166828D01*
X1214453Y166857D01*
X1214447Y166856D01*
X1214441Y166858D01*
X1214324Y166847D01*
X1214208Y166838D01*
X1214202Y166835D01*
X1214196Y166835D01*
X1214089Y166787D01*
X1213982Y166741D01*
X1213976Y166737D01*
X1213971Y166735D01*
X1213958Y166722D01*
X1213851Y166637D01*
X1211838Y164624D01*
X1211781Y164545D01*
X1211719Y164470D01*
X1211710Y164445D01*
X1211694Y164424D01*
X1211666Y164331D01*
X1211631Y164240D01*
X1211630Y164214D01*
X1211622Y164189D01*
X1211625Y164092D01*
X1211620Y163994D01*
X1211628Y163969D01*
X1211628Y163943D01*
X1211662Y163852D01*
X1211689Y163758D01*
X1211704Y163737D01*
X1211713Y163712D01*
X1211774Y163636D01*
X1211829Y163556D01*
X1211850Y163541D01*
X1211867Y163520D01*
X1211949Y163467D01*
X1212027Y163409D01*
X1212051Y163401D01*
X1212074Y163387D01*
X1212168Y163363D01*
X1212261Y163333D01*
X1212287Y163333D01*
X1212312Y163327D01*
X1212409Y163335D01*
X1212506Y163335D01*
X1212538Y163345D01*
X1212557Y163346D01*
X1212588Y163359D01*
X1212668Y163382D01*
X1213282Y163637D01*
X1213909Y163637D01*
X1213913Y163637D01*
X1213917Y163637D01*
X1214084Y163657D01*
X1214694Y163801D01*
X1215167Y163723D01*
X1215171Y163723D01*
X1215174Y163722D01*
X1215294Y163724D01*
X1215413Y163724D01*
X1215417Y163725D01*
X1215420Y163725D01*
X1215581Y163771D01*
X1216835Y164291D01*
X1221565Y164291D01*
X1225936Y162480D01*
X1229280Y159136D01*
X1231091Y154765D01*
X1231091Y150035D01*
X1229280Y145664D01*
X1225936Y142320D01*
X1221565Y140509D01*
X1216835Y140509D01*
X1214398Y141519D01*
X1214284Y141546D01*
X1214170Y141574D01*
X1214164Y141574D01*
X1214158Y141575D01*
X1214042Y141564D01*
X1213925Y141555D01*
X1213920Y141552D01*
X1213913Y141552D01*
X1213806Y141504D01*
X1213699Y141459D01*
X1213693Y141454D01*
X1213689Y141452D01*
X1213675Y141439D01*
X1213568Y141354D01*
X1204892Y132678D01*
X1201718Y131363D01*
X1058282Y131363D01*
X1055108Y132678D01*
X1046645Y141140D01*
X1046572Y141193D01*
X1046502Y141253D01*
X1046472Y141265D01*
X1046446Y141284D01*
X1046359Y141311D01*
X1046274Y141345D01*
X1046233Y141349D01*
X1046211Y141356D01*
X1046178Y141355D01*
X1046107Y141363D01*
X1045978Y141363D01*
X1045914Y141353D01*
X1045848Y141352D01*
X1045768Y141329D01*
X1045736Y141324D01*
X1045718Y141314D01*
X1045687Y141305D01*
X1043765Y140509D01*
X1039035Y140509D01*
X1034664Y142320D01*
X1031320Y145664D01*
X1029509Y150035D01*
X1029509Y154765D01*
X1031320Y159136D01*
X1034664Y162480D01*
X1039035Y164291D01*
X1043765Y164291D01*
X1048136Y162480D01*
X1051480Y159136D01*
X1051560Y158943D01*
X1051608Y158866D01*
X1051649Y158785D01*
X1051673Y158762D01*
X1051690Y158734D01*
X1051760Y158676D01*
X1051825Y158612D01*
X1051861Y158593D01*
X1051879Y158578D01*
X1051909Y158566D01*
X1051972Y158531D01*
X1052332Y158382D01*
X1052427Y158360D01*
X1052520Y158331D01*
X1052546Y158332D01*
X1052572Y158326D01*
X1052669Y158335D01*
X1052766Y158338D01*
X1052791Y158347D01*
X1052817Y158349D01*
X1052906Y158389D01*
X1052997Y158422D01*
X1053018Y158439D01*
X1053041Y158449D01*
X1053113Y158515D01*
X1053189Y158576D01*
X1053203Y158598D01*
X1053223Y158616D01*
X1053270Y158701D01*
X1053322Y158783D01*
X1053329Y158808D01*
X1053341Y158831D01*
X1053359Y158927D01*
X1053382Y159021D01*
X1053380Y159047D01*
X1053385Y159073D01*
X1053371Y159170D01*
X1053363Y159267D01*
X1053353Y159291D01*
X1053349Y159316D01*
X1053305Y159403D01*
X1053267Y159493D01*
X1053246Y159518D01*
X1053238Y159536D01*
X1053214Y159559D01*
X1053162Y159624D01*
X1046645Y166140D01*
X1046572Y166193D01*
X1046502Y166253D01*
X1046472Y166265D01*
X1046446Y166284D01*
X1046359Y166311D01*
X1046274Y166345D01*
X1046233Y166349D01*
X1046211Y166356D01*
X1046178Y166355D01*
X1046107Y166363D01*
X1045585Y166363D01*
X1045555Y166358D01*
X1045491Y166357D01*
X1044671Y166255D01*
X1044653Y166250D01*
X1044635Y166250D01*
X1044474Y166203D01*
X1043765Y165909D01*
X1039035Y165909D01*
X1034664Y167720D01*
X1031320Y171064D01*
X1031093Y171610D01*
X1031059Y171666D01*
X1031033Y171726D01*
X1030981Y171791D01*
X1030964Y171820D01*
X1030949Y171832D01*
X1030928Y171857D01*
X1026645Y176140D01*
X1026572Y176193D01*
X1026502Y176253D01*
X1026472Y176265D01*
X1026446Y176284D01*
X1026359Y176311D01*
X1026274Y176345D01*
X1026233Y176349D01*
X1026211Y176356D01*
X1026178Y176355D01*
X1026107Y176363D01*
X568893Y176363D01*
X568803Y176349D01*
X568712Y176341D01*
X568682Y176329D01*
X568650Y176324D01*
X568569Y176281D01*
X568485Y176245D01*
X568453Y176219D01*
X568433Y176208D01*
X568410Y176185D01*
X568355Y176140D01*
X559892Y167678D01*
X556718Y166363D01*
X553282Y166363D01*
X550108Y167678D01*
X547678Y170108D01*
X546545Y172843D01*
X546521Y172882D01*
X546505Y172925D01*
X546457Y172986D01*
X546416Y173052D01*
X546380Y173081D01*
X546352Y173117D01*
X546286Y173159D01*
X546226Y173208D01*
X546183Y173225D01*
X546145Y173250D01*
X546069Y173269D01*
X545997Y173297D01*
X545951Y173299D01*
X545906Y173310D01*
X545829Y173304D01*
X545751Y173307D01*
X545707Y173294D01*
X545661Y173291D01*
X545589Y173260D01*
X545515Y173238D01*
X545477Y173212D01*
X545435Y173194D01*
X545328Y173109D01*
X545313Y173098D01*
X545310Y173094D01*
X545304Y173090D01*
X524892Y152678D01*
X521718Y151363D01*
X423893Y151363D01*
X423803Y151349D01*
X423712Y151341D01*
X423682Y151329D01*
X423650Y151324D01*
X423569Y151281D01*
X423485Y151245D01*
X423453Y151219D01*
X423433Y151208D01*
X423410Y151185D01*
X423355Y151140D01*
X407150Y134936D01*
X407109Y134878D01*
X407059Y134826D01*
X407037Y134779D01*
X407007Y134737D01*
X406986Y134668D01*
X406956Y134603D01*
X406950Y134551D01*
X406935Y134501D01*
X406936Y134430D01*
X406929Y134359D01*
X406940Y134308D01*
X406941Y134256D01*
X406966Y134188D01*
X406981Y134118D01*
X407007Y134073D01*
X407025Y134025D01*
X407070Y133969D01*
X407107Y133907D01*
X407147Y133873D01*
X407179Y133833D01*
X407239Y133794D01*
X407294Y133747D01*
X407342Y133728D01*
X407386Y133700D01*
X407455Y133682D01*
X407522Y133655D01*
X407593Y133647D01*
X407625Y133639D01*
X407648Y133641D01*
X407689Y133637D01*
X956718Y133637D01*
X959892Y132322D01*
X1022322Y69892D01*
X1023637Y66718D01*
X1023637Y63282D01*
X1022322Y60108D01*
X1019892Y57678D01*
X1017157Y56545D01*
X1017118Y56521D01*
X1017075Y56505D01*
X1017015Y56457D01*
X1016948Y56416D01*
X1016919Y56380D01*
X1016883Y56352D01*
X1016841Y56286D01*
X1016792Y56226D01*
X1016775Y56183D01*
X1016750Y56145D01*
X1016731Y56069D01*
X1016703Y55997D01*
X1016701Y55951D01*
X1016690Y55906D01*
X1016696Y55829D01*
X1016695Y55797D01*
X1016695Y55796D01*
X1016693Y55751D01*
X1016706Y55707D01*
X1016709Y55661D01*
X1016740Y55589D01*
X1016747Y55556D01*
X1016752Y55548D01*
X1016761Y55515D01*
X1016788Y55477D01*
X1016806Y55435D01*
X1016861Y55366D01*
X1016873Y55345D01*
X1016887Y55333D01*
X1016891Y55328D01*
X1016902Y55313D01*
X1016906Y55310D01*
X1016910Y55304D01*
X1038355Y33860D01*
X1038428Y33807D01*
X1038498Y33747D01*
X1038528Y33735D01*
X1038554Y33716D01*
X1038641Y33689D01*
X1038726Y33655D01*
X1038767Y33651D01*
X1038789Y33644D01*
X1038822Y33645D01*
X1038893Y33637D01*
X1232311Y33637D01*
X1232382Y33648D01*
X1232454Y33650D01*
X1232503Y33668D01*
X1232554Y33676D01*
X1232617Y33710D01*
X1232685Y33735D01*
X1232725Y33767D01*
X1232771Y33792D01*
X1232821Y33843D01*
X1232877Y33888D01*
X1232905Y33932D01*
X1232941Y33970D01*
X1232971Y34035D01*
X1233010Y34095D01*
X1233022Y34146D01*
X1233044Y34193D01*
X1233052Y34264D01*
X1233070Y34334D01*
X1233066Y34386D01*
X1233071Y34437D01*
X1233056Y34508D01*
X1233051Y34579D01*
X1233030Y34627D01*
X1233019Y34678D01*
X1232982Y34739D01*
X1232954Y34805D01*
X1232910Y34861D01*
X1232893Y34889D01*
X1232875Y34904D01*
X1232850Y34936D01*
X1232678Y35108D01*
X1231363Y38282D01*
X1231363Y41718D01*
X1232678Y44892D01*
X1330108Y142322D01*
X1333282Y143637D01*
X1406718Y143637D01*
X1409892Y142322D01*
X1413355Y138860D01*
X1413428Y138807D01*
X1413498Y138747D01*
X1413528Y138735D01*
X1413554Y138716D01*
X1413641Y138689D01*
X1413726Y138655D01*
X1413767Y138651D01*
X1413789Y138644D01*
X1413822Y138645D01*
X1413893Y138637D01*
X1418666Y138637D01*
X1418689Y138641D01*
X1418712Y138638D01*
X1418878Y138667D01*
X1419246Y138774D01*
X1419451Y138751D01*
X1419558Y138756D01*
X1419665Y138757D01*
X1419684Y138763D01*
X1419696Y138764D01*
X1419724Y138775D01*
X1419826Y138804D01*
X1420035Y138891D01*
X1424765Y138891D01*
X1429136Y137080D01*
X1432480Y133736D01*
X1434291Y129365D01*
X1434291Y124635D01*
X1432480Y120264D01*
X1429136Y116920D01*
X1424765Y115109D01*
X1420035Y115109D01*
X1415664Y116920D01*
X1412320Y120264D01*
X1412059Y120893D01*
X1411998Y120993D01*
X1411938Y121093D01*
X1411933Y121097D01*
X1411929Y121102D01*
X1411839Y121177D01*
X1411751Y121253D01*
X1411745Y121255D01*
X1411740Y121259D01*
X1411632Y121301D01*
X1411522Y121345D01*
X1411515Y121346D01*
X1411510Y121347D01*
X1411492Y121348D01*
X1411356Y121363D01*
X1408282Y121363D01*
X1405108Y122678D01*
X1401645Y126140D01*
X1401572Y126193D01*
X1401502Y126253D01*
X1401472Y126265D01*
X1401446Y126284D01*
X1401359Y126311D01*
X1401274Y126345D01*
X1401233Y126349D01*
X1401211Y126356D01*
X1401178Y126355D01*
X1401107Y126363D01*
X1338893Y126363D01*
X1338803Y126349D01*
X1338712Y126341D01*
X1338682Y126329D01*
X1338650Y126324D01*
X1338569Y126281D01*
X1338485Y126245D01*
X1338453Y126219D01*
X1338433Y126208D01*
X1338410Y126185D01*
X1338355Y126140D01*
X1247150Y34936D01*
X1247109Y34878D01*
X1247059Y34826D01*
X1247037Y34779D01*
X1247007Y34737D01*
X1246986Y34668D01*
X1246956Y34603D01*
X1246950Y34551D01*
X1246935Y34501D01*
X1246936Y34430D01*
X1246929Y34359D01*
X1246940Y34308D01*
X1246941Y34256D01*
X1246966Y34188D01*
X1246981Y34118D01*
X1247007Y34074D01*
X1247025Y34025D01*
X1247070Y33969D01*
X1247107Y33907D01*
X1247147Y33873D01*
X1247179Y33833D01*
X1247239Y33794D01*
X1247294Y33747D01*
X1247342Y33728D01*
X1247386Y33700D01*
X1247455Y33682D01*
X1247522Y33655D01*
X1247593Y33647D01*
X1247625Y33639D01*
X1247648Y33641D01*
X1247689Y33637D01*
X1326107Y33637D01*
X1326197Y33651D01*
X1326288Y33659D01*
X1326318Y33671D01*
X1326350Y33676D01*
X1326431Y33719D01*
X1326515Y33755D01*
X1326547Y33781D01*
X1326567Y33792D01*
X1326590Y33815D01*
X1326645Y33860D01*
X1365108Y72322D01*
X1368282Y73637D01*
X1401107Y73637D01*
X1401197Y73651D01*
X1401288Y73659D01*
X1401318Y73671D01*
X1401350Y73676D01*
X1401431Y73719D01*
X1401515Y73755D01*
X1401547Y73781D01*
X1401567Y73792D01*
X1401590Y73815D01*
X1401645Y73860D01*
X1413325Y85539D01*
X1413343Y85565D01*
X1413408Y85638D01*
X1413936Y86385D01*
X1414502Y86743D01*
X1414503Y86743D01*
X1414634Y86848D01*
X1415108Y87322D01*
X1415952Y87672D01*
X1415980Y87689D01*
X1416068Y87731D01*
X1416841Y88220D01*
X1417501Y88333D01*
X1417501Y88334D01*
X1417502Y88334D01*
X1417663Y88380D01*
X1418282Y88637D01*
X1418797Y88637D01*
X1418893Y88652D01*
X1418990Y88662D01*
X1419014Y88672D01*
X1419040Y88676D01*
X1419126Y88722D01*
X1419215Y88762D01*
X1419234Y88779D01*
X1419257Y88792D01*
X1419324Y88862D01*
X1419396Y88928D01*
X1419409Y88951D01*
X1419427Y88970D01*
X1419468Y89058D01*
X1419515Y89144D01*
X1419519Y89169D01*
X1419530Y89193D01*
X1419541Y89290D01*
X1419558Y89386D01*
X1419554Y89412D01*
X1419557Y89437D01*
X1419537Y89533D01*
X1419522Y89629D01*
X1419511Y89652D01*
X1419505Y89678D01*
X1419455Y89761D01*
X1419411Y89848D01*
X1419392Y89867D01*
X1419379Y89889D01*
X1419305Y89952D01*
X1419235Y90020D01*
X1419207Y90036D01*
X1419192Y90049D01*
X1419161Y90061D01*
X1419088Y90101D01*
X1415664Y91520D01*
X1412320Y94864D01*
X1410509Y99235D01*
X1410509Y103965D01*
X1412320Y108336D01*
X1415664Y111680D01*
X1420035Y113491D01*
X1424765Y113491D01*
X1429136Y111680D01*
X1432480Y108336D01*
X1434291Y103965D01*
X1434291Y99235D01*
X1432480Y94864D01*
X1429136Y91520D01*
X1424765Y89709D01*
X1423040Y89709D01*
X1423002Y89703D01*
X1422963Y89705D01*
X1422881Y89683D01*
X1422798Y89670D01*
X1422763Y89651D01*
X1422725Y89641D01*
X1422655Y89594D01*
X1422580Y89554D01*
X1422553Y89526D01*
X1422521Y89504D01*
X1422469Y89437D01*
X1422411Y89376D01*
X1422394Y89340D01*
X1422370Y89309D01*
X1422343Y89230D01*
X1422307Y89153D01*
X1422303Y89114D01*
X1422290Y89077D01*
X1422290Y88992D01*
X1422280Y88909D01*
X1422289Y88870D01*
X1422288Y88831D01*
X1422315Y88751D01*
X1422332Y88668D01*
X1422353Y88635D01*
X1422365Y88597D01*
X1422415Y88529D01*
X1422459Y88457D01*
X1422488Y88432D01*
X1422512Y88400D01*
X1422581Y88352D01*
X1422646Y88297D01*
X1422682Y88282D01*
X1422714Y88260D01*
X1422873Y88205D01*
X1422874Y88205D01*
X1423298Y88109D01*
X1423299Y88109D01*
X1423466Y88091D01*
X1424765Y88091D01*
X1429136Y86280D01*
X1432480Y82936D01*
X1434291Y78565D01*
X1434291Y73835D01*
X1432480Y69464D01*
X1429136Y66120D01*
X1424765Y64309D01*
X1420035Y64309D01*
X1418022Y65143D01*
X1417908Y65170D01*
X1417795Y65198D01*
X1417788Y65198D01*
X1417782Y65199D01*
X1417666Y65188D01*
X1417550Y65179D01*
X1417544Y65177D01*
X1417537Y65176D01*
X1417430Y65128D01*
X1417323Y65083D01*
X1417317Y65078D01*
X1417313Y65076D01*
X1417299Y65063D01*
X1417192Y64978D01*
X1409892Y57678D01*
X1406718Y56363D01*
X1373893Y56363D01*
X1373803Y56349D01*
X1373712Y56341D01*
X1373682Y56329D01*
X1373650Y56324D01*
X1373569Y56281D01*
X1373485Y56245D01*
X1373453Y56219D01*
X1373433Y56208D01*
X1373410Y56185D01*
X1373355Y56140D01*
X1356910Y39696D01*
X1356884Y39659D01*
X1356850Y39628D01*
X1356812Y39560D01*
X1356767Y39497D01*
X1356753Y39453D01*
X1356731Y39412D01*
X1356717Y39336D01*
X1356695Y39261D01*
X1356696Y39216D01*
X1356688Y39170D01*
X1356699Y39093D01*
X1356701Y39016D01*
X1356717Y38972D01*
X1356723Y38927D01*
X1356759Y38858D01*
X1356785Y38785D01*
X1356814Y38749D01*
X1356835Y38708D01*
X1356890Y38653D01*
X1356939Y38593D01*
X1356978Y38568D01*
X1357010Y38536D01*
X1357130Y38470D01*
X1357146Y38460D01*
X1357151Y38458D01*
X1357157Y38455D01*
X1359892Y37322D01*
X1363355Y33860D01*
X1363428Y33807D01*
X1363498Y33747D01*
X1363528Y33735D01*
X1363554Y33716D01*
X1363641Y33689D01*
X1363726Y33655D01*
X1363767Y33651D01*
X1363789Y33644D01*
X1363822Y33645D01*
X1363893Y33637D01*
X1426107Y33637D01*
X1426197Y33651D01*
X1426288Y33659D01*
X1426318Y33671D01*
X1426350Y33676D01*
X1426431Y33719D01*
X1426515Y33755D01*
X1426547Y33781D01*
X1426567Y33792D01*
X1426590Y33815D01*
X1426645Y33860D01*
X1515108Y122322D01*
X1518282Y123637D01*
X1840055Y123637D01*
X1840145Y123651D01*
X1840236Y123659D01*
X1840266Y123671D01*
X1840298Y123676D01*
X1840379Y123719D01*
X1840463Y123755D01*
X1840495Y123781D01*
X1840516Y123792D01*
X1840538Y123815D01*
X1840594Y123860D01*
X1841114Y124380D01*
X1845485Y126191D01*
X1850215Y126191D01*
X1854586Y124380D01*
X1857930Y121036D01*
X1859741Y116665D01*
X1859741Y111935D01*
X1857930Y107564D01*
X1854586Y104220D01*
X1850215Y102409D01*
X1845485Y102409D01*
X1841114Y104220D01*
X1839194Y106140D01*
X1839120Y106193D01*
X1839050Y106253D01*
X1839020Y106265D01*
X1838994Y106284D01*
X1838907Y106311D01*
X1838822Y106345D01*
X1838781Y106349D01*
X1838759Y106356D01*
X1838727Y106355D01*
X1838655Y106363D01*
X1523893Y106363D01*
X1523803Y106349D01*
X1523712Y106341D01*
X1523682Y106329D01*
X1523650Y106324D01*
X1523570Y106281D01*
X1523485Y106245D01*
X1523453Y106219D01*
X1523433Y106208D01*
X1523411Y106185D01*
X1523355Y106140D01*
X1522150Y104936D01*
X1522109Y104878D01*
X1522059Y104826D01*
X1522037Y104779D01*
X1522007Y104737D01*
X1521986Y104668D01*
X1521956Y104603D01*
X1521950Y104551D01*
X1521935Y104501D01*
X1521936Y104430D01*
X1521929Y104359D01*
X1521940Y104308D01*
X1521941Y104256D01*
X1521966Y104188D01*
X1521981Y104118D01*
X1522007Y104073D01*
X1522025Y104025D01*
X1522070Y103969D01*
X1522107Y103907D01*
X1522147Y103873D01*
X1522179Y103833D01*
X1522239Y103794D01*
X1522294Y103747D01*
X1522342Y103728D01*
X1522386Y103700D01*
X1522455Y103682D01*
X1522522Y103655D01*
X1522593Y103647D01*
X1522624Y103639D01*
X1522648Y103641D01*
X1522689Y103637D01*
X1831718Y103637D01*
X1834892Y102322D01*
X1838355Y98860D01*
X1838428Y98807D01*
X1838498Y98747D01*
X1838528Y98735D01*
X1838554Y98716D01*
X1838641Y98689D01*
X1838726Y98655D01*
X1838767Y98651D01*
X1838789Y98644D01*
X1838822Y98645D01*
X1838893Y98637D01*
X1840455Y98637D01*
X1840545Y98651D01*
X1840636Y98659D01*
X1840666Y98671D01*
X1840698Y98676D01*
X1840779Y98719D01*
X1840863Y98755D01*
X1840895Y98781D01*
X1840916Y98792D01*
X1840938Y98815D01*
X1840994Y98860D01*
X1841114Y98980D01*
X1845485Y100791D01*
X1850215Y100791D01*
X1854586Y98980D01*
X1857930Y95636D01*
X1859741Y91265D01*
X1859741Y86535D01*
X1857930Y82164D01*
X1854586Y78820D01*
X1850215Y77009D01*
X1845485Y77009D01*
X1841114Y78820D01*
X1838794Y81140D01*
X1838720Y81193D01*
X1838650Y81253D01*
X1838620Y81265D01*
X1838594Y81284D01*
X1838507Y81311D01*
X1838422Y81345D01*
X1838381Y81349D01*
X1838359Y81356D01*
X1838327Y81355D01*
X1838255Y81363D01*
X1833282Y81363D01*
X1830108Y82678D01*
X1826645Y86140D01*
X1826572Y86193D01*
X1826502Y86253D01*
X1826472Y86265D01*
X1826446Y86284D01*
X1826359Y86311D01*
X1826274Y86345D01*
X1826233Y86349D01*
X1826211Y86356D01*
X1826178Y86355D01*
X1826107Y86363D01*
X1523893Y86363D01*
X1523803Y86349D01*
X1523712Y86341D01*
X1523682Y86329D01*
X1523650Y86324D01*
X1523569Y86281D01*
X1523485Y86245D01*
X1523453Y86219D01*
X1523433Y86208D01*
X1523410Y86185D01*
X1523355Y86140D01*
X1454892Y17678D01*
X1451718Y16363D01*
X1448282Y16363D01*
X1445108Y17678D01*
X1442678Y20108D01*
X1441545Y22843D01*
X1441521Y22882D01*
X1441505Y22925D01*
X1441457Y22985D01*
X1441416Y23052D01*
X1441380Y23081D01*
X1441352Y23117D01*
X1441286Y23159D01*
X1441226Y23208D01*
X1441183Y23225D01*
X1441145Y23250D01*
X1441069Y23269D01*
X1440997Y23297D01*
X1440951Y23299D01*
X1440906Y23310D01*
X1440829Y23304D01*
X1440751Y23307D01*
X1440707Y23294D01*
X1440661Y23291D01*
X1440589Y23260D01*
X1440515Y23239D01*
X1440477Y23212D01*
X1440435Y23194D01*
X1440328Y23109D01*
X1440313Y23098D01*
X1440310Y23094D01*
X1440304Y23090D01*
X1437429Y20215D01*
X1434892Y17678D01*
X1431718Y16363D01*
X1358282Y16363D01*
X1355108Y17678D01*
X1347678Y25108D01*
X1346545Y27843D01*
X1346521Y27882D01*
X1346505Y27925D01*
X1346457Y27986D01*
X1346416Y28052D01*
X1346380Y28081D01*
X1346352Y28117D01*
X1346286Y28159D01*
X1346226Y28208D01*
X1346183Y28225D01*
X1346145Y28250D01*
X1346069Y28269D01*
X1345997Y28297D01*
X1345951Y28299D01*
X1345906Y28310D01*
X1345829Y28304D01*
X1345751Y28307D01*
X1345707Y28294D01*
X1345661Y28291D01*
X1345589Y28260D01*
X1345515Y28238D01*
X1345477Y28212D01*
X1345435Y28194D01*
X1345328Y28109D01*
X1345313Y28098D01*
X1345310Y28094D01*
X1345304Y28090D01*
X1334892Y17678D01*
X1331718Y16363D01*
X1033282Y16363D01*
X1030108Y17678D01*
X976645Y71140D01*
X976572Y71193D01*
X976502Y71253D01*
X976472Y71265D01*
X976446Y71284D01*
X976359Y71311D01*
X976274Y71345D01*
X976233Y71349D01*
X976211Y71356D01*
X976178Y71355D01*
X976107Y71363D01*
X527689Y71363D01*
X527618Y71352D01*
X527546Y71350D01*
X527497Y71332D01*
X527446Y71324D01*
X527383Y71290D01*
X527315Y71265D01*
X527275Y71233D01*
X527229Y71208D01*
X527179Y71156D01*
X527123Y71112D01*
X527095Y71068D01*
X527059Y71030D01*
X527029Y70965D01*
X526990Y70905D01*
X526978Y70854D01*
X526956Y70807D01*
X526948Y70736D01*
X526930Y70666D01*
X526934Y70614D01*
X526929Y70563D01*
X526944Y70492D01*
X526949Y70421D01*
X526970Y70373D01*
X526981Y70322D01*
X527018Y70261D01*
X527046Y70195D01*
X527090Y70139D01*
X527107Y70111D01*
X527125Y70096D01*
X527150Y70064D01*
X528355Y68860D01*
X528429Y68807D01*
X528498Y68747D01*
X528528Y68735D01*
X528554Y68716D01*
X528641Y68689D01*
X528726Y68655D01*
X528767Y68651D01*
X528789Y68644D01*
X528822Y68645D01*
X528893Y68637D01*
X766718Y68637D01*
X769892Y67322D01*
X792322Y44892D01*
X793637Y41718D01*
X793637Y38052D01*
X793640Y38032D01*
X793638Y38013D01*
X793660Y37911D01*
X793676Y37809D01*
X793686Y37792D01*
X793690Y37772D01*
X793743Y37683D01*
X793792Y37592D01*
X793806Y37578D01*
X793816Y37561D01*
X793895Y37494D01*
X793970Y37422D01*
X793988Y37414D01*
X794003Y37401D01*
X794099Y37362D01*
X794193Y37319D01*
X794213Y37317D01*
X794231Y37309D01*
X794398Y37291D01*
X797058Y37291D01*
X799291Y35058D01*
X799291Y15742D01*
X797058Y13509D01*
X777742Y13509D01*
X775509Y15742D01*
X775509Y35058D01*
X776080Y35629D01*
X776092Y35645D01*
X776107Y35658D01*
X776163Y35745D01*
X776224Y35829D01*
X776229Y35848D01*
X776240Y35865D01*
X776265Y35965D01*
X776296Y36064D01*
X776295Y36084D01*
X776300Y36103D01*
X776292Y36206D01*
X776290Y36310D01*
X776283Y36329D01*
X776281Y36348D01*
X776241Y36443D01*
X776205Y36541D01*
X776193Y36557D01*
X776185Y36575D01*
X776080Y36706D01*
X761645Y51140D01*
X761572Y51193D01*
X761502Y51253D01*
X761472Y51265D01*
X761446Y51284D01*
X761359Y51311D01*
X761274Y51345D01*
X761233Y51349D01*
X761211Y51356D01*
X761178Y51355D01*
X761107Y51363D01*
X612689Y51363D01*
X612618Y51352D01*
X612546Y51350D01*
X612497Y51332D01*
X612446Y51324D01*
X612383Y51290D01*
X612315Y51265D01*
X612275Y51233D01*
X612229Y51208D01*
X612179Y51157D01*
X612123Y51112D01*
X612095Y51068D01*
X612059Y51030D01*
X612029Y50965D01*
X611990Y50905D01*
X611978Y50854D01*
X611956Y50807D01*
X611948Y50736D01*
X611930Y50666D01*
X611934Y50614D01*
X611929Y50563D01*
X611944Y50492D01*
X611949Y50421D01*
X611970Y50373D01*
X611981Y50322D01*
X612018Y50261D01*
X612046Y50195D01*
X612090Y50139D01*
X612107Y50111D01*
X612125Y50096D01*
X612150Y50064D01*
X612429Y49785D01*
X617322Y44892D01*
X618637Y41718D01*
X618637Y38052D01*
X618640Y38032D01*
X618638Y38013D01*
X618660Y37911D01*
X618676Y37809D01*
X618686Y37792D01*
X618690Y37772D01*
X618743Y37683D01*
X618792Y37592D01*
X618806Y37578D01*
X618816Y37561D01*
X618895Y37494D01*
X618970Y37422D01*
X618988Y37414D01*
X619003Y37401D01*
X619099Y37362D01*
X619193Y37319D01*
X619213Y37317D01*
X619231Y37309D01*
X619241Y37308D01*
X621491Y35058D01*
X621491Y15742D01*
X619258Y13509D01*
X599942Y13509D01*
X597709Y15742D01*
X597709Y35058D01*
X597715Y35064D01*
X597756Y35122D01*
X597806Y35174D01*
X597828Y35221D01*
X597858Y35263D01*
X597879Y35332D01*
X597909Y35397D01*
X597915Y35449D01*
X597930Y35499D01*
X597929Y35570D01*
X597936Y35641D01*
X597925Y35692D01*
X597924Y35744D01*
X597899Y35812D01*
X597884Y35882D01*
X597857Y35927D01*
X597840Y35975D01*
X597795Y36031D01*
X597758Y36093D01*
X597718Y36127D01*
X597686Y36167D01*
X597626Y36206D01*
X597571Y36253D01*
X597523Y36272D01*
X597479Y36300D01*
X597410Y36318D01*
X597343Y36345D01*
X597272Y36353D01*
X597241Y36361D01*
X597217Y36359D01*
X597176Y36363D01*
X596624Y36363D01*
X596553Y36352D01*
X596481Y36350D01*
X596432Y36332D01*
X596381Y36324D01*
X596318Y36290D01*
X596250Y36265D01*
X596210Y36233D01*
X596164Y36208D01*
X596114Y36157D01*
X596058Y36112D01*
X596030Y36068D01*
X595994Y36030D01*
X595964Y35965D01*
X595925Y35905D01*
X595913Y35854D01*
X595891Y35807D01*
X595883Y35736D01*
X595865Y35666D01*
X595869Y35614D01*
X595864Y35563D01*
X595879Y35492D01*
X595884Y35421D01*
X595905Y35373D01*
X595916Y35322D01*
X595953Y35261D01*
X595981Y35195D01*
X596025Y35139D01*
X596042Y35111D01*
X596060Y35096D01*
X596085Y35064D01*
X596091Y35058D01*
X596091Y15742D01*
X593858Y13509D01*
X574542Y13509D01*
X572309Y15742D01*
X572309Y35058D01*
X572315Y35064D01*
X572356Y35122D01*
X572406Y35174D01*
X572428Y35221D01*
X572458Y35263D01*
X572479Y35332D01*
X572509Y35397D01*
X572515Y35449D01*
X572530Y35499D01*
X572529Y35570D01*
X572536Y35641D01*
X572525Y35692D01*
X572524Y35744D01*
X572499Y35812D01*
X572484Y35882D01*
X572457Y35927D01*
X572440Y35975D01*
X572395Y36031D01*
X572358Y36093D01*
X572318Y36127D01*
X572286Y36167D01*
X572226Y36206D01*
X572171Y36253D01*
X572123Y36272D01*
X572079Y36300D01*
X572010Y36318D01*
X571943Y36345D01*
X571872Y36353D01*
X571841Y36361D01*
X571817Y36359D01*
X571776Y36363D01*
X571224Y36363D01*
X571153Y36352D01*
X571081Y36350D01*
X571032Y36332D01*
X570981Y36324D01*
X570918Y36290D01*
X570850Y36265D01*
X570810Y36233D01*
X570764Y36208D01*
X570714Y36157D01*
X570658Y36112D01*
X570630Y36068D01*
X570594Y36030D01*
X570564Y35965D01*
X570525Y35905D01*
X570513Y35854D01*
X570491Y35807D01*
X570483Y35736D01*
X570465Y35666D01*
X570469Y35614D01*
X570464Y35563D01*
X570479Y35492D01*
X570484Y35421D01*
X570505Y35373D01*
X570516Y35322D01*
X570553Y35261D01*
X570581Y35195D01*
X570625Y35139D01*
X570642Y35111D01*
X570660Y35096D01*
X570685Y35064D01*
X570691Y35058D01*
X570691Y15742D01*
X568458Y13509D01*
X549142Y13509D01*
X546909Y15742D01*
X546909Y35058D01*
X546915Y35064D01*
X546956Y35122D01*
X547006Y35174D01*
X547028Y35221D01*
X547058Y35263D01*
X547079Y35332D01*
X547109Y35397D01*
X547115Y35449D01*
X547130Y35499D01*
X547129Y35570D01*
X547136Y35641D01*
X547125Y35692D01*
X547124Y35744D01*
X547099Y35812D01*
X547084Y35882D01*
X547057Y35927D01*
X547040Y35975D01*
X546995Y36031D01*
X546958Y36093D01*
X546918Y36127D01*
X546886Y36167D01*
X546826Y36206D01*
X546771Y36253D01*
X546723Y36272D01*
X546679Y36300D01*
X546610Y36318D01*
X546543Y36345D01*
X546472Y36353D01*
X546441Y36361D01*
X546417Y36359D01*
X546376Y36363D01*
X545824Y36363D01*
X545753Y36352D01*
X545681Y36350D01*
X545632Y36332D01*
X545581Y36324D01*
X545518Y36290D01*
X545450Y36265D01*
X545410Y36233D01*
X545364Y36208D01*
X545314Y36157D01*
X545258Y36112D01*
X545230Y36068D01*
X545194Y36030D01*
X545164Y35965D01*
X545125Y35905D01*
X545113Y35854D01*
X545091Y35807D01*
X545083Y35736D01*
X545065Y35666D01*
X545069Y35614D01*
X545064Y35563D01*
X545079Y35492D01*
X545084Y35421D01*
X545105Y35373D01*
X545116Y35322D01*
X545153Y35261D01*
X545181Y35195D01*
X545225Y35139D01*
X545242Y35111D01*
X545260Y35096D01*
X545285Y35064D01*
X545291Y35058D01*
X545291Y15742D01*
X543058Y13509D01*
X523742Y13509D01*
X521509Y15742D01*
X521509Y35058D01*
X521515Y35064D01*
X521556Y35122D01*
X521606Y35174D01*
X521628Y35221D01*
X521658Y35263D01*
X521679Y35332D01*
X521709Y35397D01*
X521715Y35449D01*
X521730Y35499D01*
X521729Y35570D01*
X521736Y35641D01*
X521725Y35692D01*
X521724Y35744D01*
X521699Y35812D01*
X521684Y35882D01*
X521657Y35927D01*
X521640Y35975D01*
X521595Y36031D01*
X521558Y36093D01*
X521518Y36127D01*
X521486Y36167D01*
X521426Y36206D01*
X521371Y36253D01*
X521323Y36272D01*
X521279Y36300D01*
X521210Y36318D01*
X521143Y36345D01*
X521072Y36353D01*
X521041Y36361D01*
X521017Y36359D01*
X520976Y36363D01*
X520424Y36363D01*
X520353Y36352D01*
X520281Y36350D01*
X520232Y36332D01*
X520181Y36324D01*
X520118Y36290D01*
X520050Y36265D01*
X520010Y36233D01*
X519964Y36208D01*
X519914Y36157D01*
X519858Y36112D01*
X519830Y36068D01*
X519794Y36030D01*
X519764Y35965D01*
X519725Y35905D01*
X519713Y35854D01*
X519691Y35807D01*
X519683Y35736D01*
X519665Y35666D01*
X519669Y35614D01*
X519664Y35563D01*
X519679Y35492D01*
X519684Y35421D01*
X519705Y35373D01*
X519716Y35322D01*
X519753Y35261D01*
X519781Y35195D01*
X519825Y35139D01*
X519842Y35111D01*
X519860Y35096D01*
X519885Y35064D01*
X519891Y35058D01*
X519891Y15742D01*
X517658Y13509D01*
X498342Y13509D01*
X496109Y15742D01*
X496109Y35058D01*
X498342Y37291D01*
X513657Y37291D01*
X513728Y37302D01*
X513800Y37304D01*
X513849Y37322D01*
X513900Y37330D01*
X513963Y37364D01*
X514031Y37389D01*
X514071Y37421D01*
X514117Y37446D01*
X514167Y37498D01*
X514223Y37542D01*
X514251Y37586D01*
X514287Y37624D01*
X514317Y37689D01*
X514356Y37749D01*
X514368Y37800D01*
X514390Y37847D01*
X514398Y37918D01*
X514416Y37988D01*
X514412Y38040D01*
X514417Y38091D01*
X514402Y38162D01*
X514397Y38233D01*
X514376Y38281D01*
X514365Y38332D01*
X514328Y38393D01*
X514300Y38459D01*
X514256Y38515D01*
X514239Y38543D01*
X514221Y38558D01*
X514196Y38590D01*
X500215Y52571D01*
X497678Y55108D01*
X496363Y58282D01*
X496363Y71718D01*
X497678Y74892D01*
X510108Y87322D01*
X513282Y88637D01*
X977311Y88637D01*
X977382Y88648D01*
X977454Y88650D01*
X977503Y88668D01*
X977554Y88676D01*
X977617Y88710D01*
X977685Y88735D01*
X977725Y88767D01*
X977771Y88792D01*
X977821Y88844D01*
X977877Y88888D01*
X977905Y88932D01*
X977941Y88970D01*
X977971Y89035D01*
X978010Y89095D01*
X978022Y89146D01*
X978044Y89193D01*
X978052Y89264D01*
X978070Y89334D01*
X978066Y89386D01*
X978071Y89437D01*
X978056Y89508D01*
X978051Y89579D01*
X978030Y89627D01*
X978019Y89678D01*
X977982Y89739D01*
X977954Y89805D01*
X977910Y89861D01*
X977893Y89889D01*
X977875Y89904D01*
X977850Y89936D01*
X951645Y116140D01*
X951572Y116193D01*
X951502Y116253D01*
X951472Y116265D01*
X951446Y116284D01*
X951359Y116311D01*
X951274Y116345D01*
X951233Y116349D01*
X951211Y116356D01*
X951178Y116355D01*
X951107Y116363D01*
X403282Y116363D01*
X400108Y117678D01*
X397678Y120108D01*
X396545Y122843D01*
X396521Y122882D01*
X396505Y122925D01*
X396457Y122986D01*
X396416Y123052D01*
X396380Y123081D01*
X396352Y123117D01*
X396286Y123159D01*
X396226Y123208D01*
X396183Y123225D01*
X396145Y123250D01*
X396069Y123269D01*
X395997Y123297D01*
X395951Y123299D01*
X395906Y123310D01*
X395829Y123304D01*
X395751Y123307D01*
X395707Y123294D01*
X395661Y123291D01*
X395589Y123260D01*
X395515Y123238D01*
X395477Y123212D01*
X395435Y123194D01*
X395328Y123109D01*
X395313Y123098D01*
X395310Y123094D01*
X395304Y123090D01*
X394892Y122678D01*
X391789Y121393D01*
X391712Y121345D01*
X391630Y121303D01*
X391608Y121280D01*
X391580Y121263D01*
X391522Y121193D01*
X391458Y121128D01*
X391438Y121092D01*
X391423Y121074D01*
X391412Y121043D01*
X391377Y120981D01*
X391080Y120264D01*
X387736Y116920D01*
X383365Y115109D01*
X378635Y115109D01*
X374264Y116920D01*
X370920Y120264D01*
X369109Y124635D01*
X369109Y129365D01*
X370920Y133736D01*
X374264Y137080D01*
X378635Y138891D01*
X383365Y138891D01*
X383718Y138744D01*
X383755Y138736D01*
X383789Y138719D01*
X383874Y138708D01*
X383958Y138688D01*
X383995Y138692D01*
X384032Y138687D01*
X384199Y138710D01*
X384521Y138793D01*
X385560Y138644D01*
X385593Y138645D01*
X385668Y138637D01*
X386107Y138637D01*
X386197Y138651D01*
X386288Y138659D01*
X386318Y138671D01*
X386350Y138676D01*
X386431Y138719D01*
X386515Y138755D01*
X386547Y138781D01*
X386567Y138792D01*
X386590Y138815D01*
X386645Y138860D01*
X392850Y145064D01*
X392891Y145122D01*
X392941Y145174D01*
X392963Y145221D01*
X392993Y145263D01*
X393014Y145332D01*
X393044Y145397D01*
X393050Y145449D01*
X393065Y145499D01*
X393064Y145570D01*
X393071Y145641D01*
X393060Y145692D01*
X393059Y145744D01*
X393034Y145812D01*
X393019Y145882D01*
X392993Y145927D01*
X392975Y145975D01*
X392930Y146031D01*
X392893Y146093D01*
X392853Y146127D01*
X392821Y146167D01*
X392761Y146206D01*
X392706Y146253D01*
X392658Y146272D01*
X392614Y146300D01*
X392545Y146318D01*
X392478Y146345D01*
X392407Y146353D01*
X392375Y146361D01*
X392352Y146359D01*
X392311Y146363D01*
X391879Y146363D01*
X391764Y146344D01*
X391648Y146327D01*
X391642Y146325D01*
X391636Y146324D01*
X391533Y146269D01*
X391428Y146216D01*
X391424Y146211D01*
X391418Y146208D01*
X391339Y146124D01*
X391256Y146040D01*
X391253Y146034D01*
X391249Y146030D01*
X391241Y146013D01*
X391175Y145893D01*
X391080Y145664D01*
X387736Y142320D01*
X383365Y140509D01*
X378635Y140509D01*
X374264Y142320D01*
X370920Y145664D01*
X369109Y150035D01*
X369109Y154765D01*
X370920Y159136D01*
X374264Y162480D01*
X378635Y164291D01*
X383365Y164291D01*
X384507Y163818D01*
X384518Y163815D01*
X384529Y163809D01*
X384638Y163787D01*
X384746Y163762D01*
X384758Y163763D01*
X384770Y163761D01*
X384937Y163773D01*
X385112Y163805D01*
X385828Y163653D01*
X385842Y163653D01*
X385986Y163637D01*
X391107Y163637D01*
X391197Y163651D01*
X391288Y163659D01*
X391318Y163671D01*
X391350Y163676D01*
X391430Y163719D01*
X391515Y163755D01*
X391547Y163781D01*
X391567Y163792D01*
X391589Y163815D01*
X391645Y163860D01*
X392850Y165064D01*
X392891Y165122D01*
X392941Y165174D01*
X392963Y165221D01*
X392993Y165263D01*
X393014Y165332D01*
X393044Y165397D01*
X393050Y165449D01*
X393065Y165499D01*
X393064Y165570D01*
X393071Y165641D01*
X393060Y165692D01*
X393059Y165744D01*
X393034Y165812D01*
X393019Y165882D01*
X392993Y165927D01*
X392975Y165975D01*
X392930Y166031D01*
X392893Y166093D01*
X392853Y166127D01*
X392821Y166167D01*
X392761Y166206D01*
X392706Y166253D01*
X392658Y166272D01*
X392614Y166300D01*
X392545Y166318D01*
X392478Y166345D01*
X392407Y166353D01*
X392376Y166361D01*
X392352Y166359D01*
X392311Y166363D01*
X385823Y166363D01*
X385792Y166358D01*
X385691Y166352D01*
X384809Y166196D01*
X384798Y166198D01*
X384798Y166199D01*
X384554Y166253D01*
X384529Y166254D01*
X384505Y166262D01*
X384406Y166261D01*
X384308Y166266D01*
X384284Y166260D01*
X384259Y166259D01*
X384098Y166213D01*
X383365Y165909D01*
X378635Y165909D01*
X374264Y167720D01*
X370920Y171064D01*
X369109Y175435D01*
X369109Y180165D01*
X370920Y184536D01*
X374264Y187880D01*
X378635Y189691D01*
X383365Y189691D01*
X387736Y187880D01*
X391163Y184453D01*
X391179Y184442D01*
X391191Y184426D01*
X391278Y184370D01*
X391362Y184310D01*
X391381Y184304D01*
X391398Y184293D01*
X391499Y184268D01*
X391597Y184237D01*
X391617Y184238D01*
X391637Y184233D01*
X391740Y184241D01*
X391843Y184244D01*
X391862Y184251D01*
X391882Y184252D01*
X391977Y184293D01*
X392074Y184328D01*
X392090Y184341D01*
X392108Y184349D01*
X392239Y184453D01*
X461140Y253355D01*
X461193Y253428D01*
X461253Y253498D01*
X461265Y253528D01*
X461284Y253554D01*
X461311Y253641D01*
X461345Y253726D01*
X461349Y253767D01*
X461356Y253789D01*
X461355Y253822D01*
X461363Y253893D01*
X461363Y266718D01*
X462678Y269892D01*
X470486Y277701D01*
X470539Y277774D01*
X470599Y277844D01*
X470611Y277874D01*
X470630Y277900D01*
X470657Y277987D01*
X470691Y278072D01*
X470695Y278113D01*
X470702Y278135D01*
X470701Y278168D01*
X470709Y278239D01*
X470709Y281765D01*
X472520Y286136D01*
X474924Y288540D01*
X474966Y288598D01*
X475015Y288650D01*
X475037Y288697D01*
X475067Y288739D01*
X475088Y288808D01*
X475119Y288873D01*
X475124Y288925D01*
X475140Y288975D01*
X475138Y289046D01*
X475146Y289117D01*
X475135Y289168D01*
X475133Y289220D01*
X475109Y289288D01*
X475093Y289358D01*
X475067Y289403D01*
X475049Y289451D01*
X475004Y289507D01*
X474967Y289569D01*
X474928Y289603D01*
X474895Y289643D01*
X474835Y289682D01*
X474780Y289729D01*
X474732Y289748D01*
X474688Y289776D01*
X474619Y289794D01*
X474552Y289821D01*
X474481Y289829D01*
X474450Y289837D01*
X474426Y289835D01*
X474385Y289839D01*
X440043Y289839D01*
X439972Y289828D01*
X439900Y289826D01*
X439851Y289808D01*
X439800Y289800D01*
X439737Y289766D01*
X439669Y289741D01*
X439629Y289709D01*
X439583Y289684D01*
X439533Y289632D01*
X439477Y289588D01*
X439449Y289544D01*
X439413Y289506D01*
X439383Y289441D01*
X439344Y289381D01*
X439332Y289330D01*
X439310Y289283D01*
X439302Y289212D01*
X439284Y289142D01*
X439288Y289090D01*
X439283Y289039D01*
X439298Y288968D01*
X439303Y288897D01*
X439324Y288849D01*
X439335Y288798D01*
X439372Y288737D01*
X439400Y288671D01*
X439445Y288615D01*
X439461Y288587D01*
X439479Y288572D01*
X439505Y288540D01*
X441897Y286147D01*
X443711Y281769D01*
X443711Y277031D01*
X441897Y272653D01*
X438547Y269303D01*
X434169Y267489D01*
X429431Y267489D01*
X425053Y269303D01*
X421703Y272653D01*
X419889Y277031D01*
X419889Y281769D01*
X421703Y286147D01*
X424095Y288540D01*
X424137Y288598D01*
X424187Y288650D01*
X424209Y288697D01*
X424239Y288739D01*
X424260Y288808D01*
X424290Y288873D01*
X424296Y288925D01*
X424311Y288975D01*
X424309Y289046D01*
X424317Y289117D01*
X424306Y289168D01*
X424305Y289220D01*
X424280Y289288D01*
X424265Y289358D01*
X424238Y289403D01*
X424221Y289451D01*
X424176Y289507D01*
X424139Y289569D01*
X424099Y289603D01*
X424067Y289643D01*
X424007Y289682D01*
X423952Y289729D01*
X423904Y289748D01*
X423860Y289776D01*
X423790Y289794D01*
X423724Y289821D01*
X423653Y289829D01*
X423621Y289837D01*
X423598Y289835D01*
X423557Y289839D01*
X47581Y289839D01*
X47510Y289828D01*
X47439Y289826D01*
X47390Y289808D01*
X47338Y289800D01*
X47275Y289766D01*
X47208Y289741D01*
X47167Y289709D01*
X47121Y289684D01*
X47072Y289632D01*
X47016Y289588D01*
X46988Y289544D01*
X46952Y289506D01*
X46922Y289441D01*
X46883Y289381D01*
X46870Y289330D01*
X46848Y289283D01*
X46840Y289212D01*
X46823Y289142D01*
X46827Y289090D01*
X46821Y289039D01*
X46836Y288968D01*
X46842Y288897D01*
X46862Y288849D01*
X46873Y288798D01*
X46910Y288737D01*
X46938Y288671D01*
X46983Y288615D01*
X46999Y288587D01*
X47017Y288572D01*
X47043Y288540D01*
X50134Y285449D01*
X53446Y279712D01*
X55161Y273312D01*
X55161Y266688D01*
X53446Y260288D01*
X50134Y254551D01*
X45449Y249866D01*
X39712Y246554D01*
X33312Y244839D01*
X26688Y244839D01*
X20288Y246554D01*
X14551Y249866D01*
X11460Y252957D01*
X11402Y252999D01*
X11350Y253048D01*
X11303Y253070D01*
X11261Y253101D01*
X11192Y253122D01*
X11127Y253152D01*
X11075Y253158D01*
X11025Y253173D01*
X10954Y253171D01*
X10883Y253179D01*
X10832Y253168D01*
X10780Y253167D01*
X10712Y253142D01*
X10642Y253127D01*
X10597Y253100D01*
X10549Y253082D01*
X10493Y253037D01*
X10431Y253001D01*
X10397Y252961D01*
X10357Y252928D01*
X10318Y252868D01*
X10271Y252814D01*
X10252Y252765D01*
X10224Y252722D01*
X10206Y252652D01*
X10179Y252586D01*
X10171Y252514D01*
X10163Y252483D01*
X10165Y252460D01*
X10161Y252419D01*
X10161Y127581D01*
X10172Y127510D01*
X10174Y127439D01*
X10192Y127390D01*
X10200Y127338D01*
X10234Y127275D01*
X10259Y127208D01*
X10291Y127167D01*
X10316Y127121D01*
X10368Y127072D01*
X10412Y127016D01*
X10456Y126988D01*
X10494Y126952D01*
X10559Y126922D01*
X10619Y126883D01*
X10670Y126870D01*
X10717Y126848D01*
X10788Y126840D01*
X10858Y126823D01*
X10910Y126827D01*
X10961Y126821D01*
X11032Y126836D01*
X11103Y126842D01*
X11151Y126862D01*
X11202Y126873D01*
X11263Y126910D01*
X11329Y126938D01*
X11385Y126983D01*
X11413Y126999D01*
X11428Y127017D01*
X11460Y127043D01*
X14551Y130134D01*
X20288Y133446D01*
X26688Y135161D01*
X33312Y135161D01*
X39712Y133446D01*
X45449Y130134D01*
X50134Y125449D01*
X53446Y119712D01*
X55161Y113312D01*
X55161Y106688D01*
X53446Y100288D01*
X50134Y94551D01*
X45449Y89866D01*
X39712Y86554D01*
X33312Y84839D01*
X26688Y84839D01*
X20288Y86554D01*
X14551Y89866D01*
X11460Y92957D01*
X11402Y92999D01*
X11350Y93048D01*
X11303Y93070D01*
X11261Y93101D01*
X11192Y93122D01*
X11127Y93152D01*
X11075Y93158D01*
X11025Y93173D01*
X10954Y93171D01*
X10883Y93179D01*
X10832Y93168D01*
X10780Y93167D01*
X10712Y93142D01*
X10642Y93127D01*
X10597Y93100D01*
X10549Y93082D01*
X10493Y93037D01*
X10431Y93001D01*
X10397Y92961D01*
X10357Y92928D01*
X10318Y92868D01*
X10271Y92814D01*
X10252Y92765D01*
X10224Y92722D01*
X10206Y92652D01*
X10179Y92586D01*
X10171Y92514D01*
X10163Y92483D01*
X10165Y92460D01*
X10161Y92419D01*
X10161Y28943D01*
X10176Y28847D01*
X10186Y28750D01*
X10196Y28726D01*
X10200Y28701D01*
X10246Y28615D01*
X10286Y28526D01*
X10303Y28506D01*
X10316Y28483D01*
X10386Y28416D01*
X10452Y28345D01*
X10475Y28332D01*
X10494Y28314D01*
X10582Y28273D01*
X10668Y28226D01*
X10693Y28221D01*
X10717Y28210D01*
X10814Y28200D01*
X10910Y28182D01*
X10936Y28186D01*
X10961Y28183D01*
X11057Y28204D01*
X11153Y28218D01*
X11176Y28230D01*
X11202Y28235D01*
X11285Y28285D01*
X11372Y28330D01*
X11391Y28348D01*
X11413Y28362D01*
X11476Y28436D01*
X11544Y28505D01*
X11560Y28534D01*
X11573Y28549D01*
X11585Y28579D01*
X11625Y28652D01*
X13556Y33314D01*
X17486Y37244D01*
X19570Y38107D01*
X19606Y38129D01*
X19645Y38143D01*
X19709Y38193D01*
X19779Y38237D01*
X19806Y38269D01*
X19839Y38295D01*
X19884Y38363D01*
X19936Y38426D01*
X19951Y38465D01*
X19974Y38500D01*
X19995Y38579D01*
X20024Y38656D01*
X20026Y38697D01*
X20037Y38738D01*
X20031Y38820D01*
X20034Y38901D01*
X20023Y38942D01*
X20020Y38984D01*
X19989Y39059D01*
X19966Y39138D01*
X19942Y39172D01*
X19926Y39211D01*
X19872Y39273D01*
X19826Y39340D01*
X19792Y39365D01*
X19764Y39396D01*
X19635Y39481D01*
X19628Y39486D01*
X19627Y39487D01*
X19624Y39489D01*
X18743Y39937D01*
X17126Y41113D01*
X15713Y42526D01*
X14537Y44143D01*
X13630Y45925D01*
X13012Y47826D01*
X12782Y49277D01*
X24638Y49277D01*
X24658Y49280D01*
X24677Y49278D01*
X24779Y49300D01*
X24881Y49317D01*
X24898Y49326D01*
X24918Y49330D01*
X25007Y49383D01*
X25098Y49432D01*
X25112Y49446D01*
X25129Y49456D01*
X25196Y49535D01*
X25267Y49610D01*
X25276Y49628D01*
X25289Y49643D01*
X25327Y49739D01*
X25371Y49833D01*
X25373Y49853D01*
X25381Y49871D01*
X25399Y50038D01*
X25399Y50801D01*
X25401Y50801D01*
X25401Y50038D01*
X25404Y50018D01*
X25402Y49999D01*
X25424Y49897D01*
X25441Y49795D01*
X25450Y49778D01*
X25454Y49758D01*
X25507Y49669D01*
X25556Y49578D01*
X25570Y49564D01*
X25580Y49547D01*
X25659Y49480D01*
X25734Y49409D01*
X25752Y49400D01*
X25767Y49387D01*
X25863Y49348D01*
X25957Y49305D01*
X25977Y49303D01*
X25995Y49295D01*
X26162Y49277D01*
X38018Y49277D01*
X37788Y47826D01*
X37170Y45925D01*
X36263Y44143D01*
X35087Y42526D01*
X33674Y41113D01*
X32057Y39937D01*
X31176Y39489D01*
X31142Y39464D01*
X31104Y39447D01*
X31044Y39391D01*
X30977Y39343D01*
X30953Y39309D01*
X30922Y39280D01*
X30883Y39209D01*
X30836Y39142D01*
X30824Y39102D01*
X30804Y39065D01*
X30789Y38984D01*
X30766Y38906D01*
X30768Y38864D01*
X30760Y38823D01*
X30772Y38742D01*
X30775Y38660D01*
X30790Y38621D01*
X30796Y38579D01*
X30833Y38506D01*
X30862Y38430D01*
X30888Y38397D01*
X30907Y38360D01*
X30966Y38303D01*
X31018Y38240D01*
X31053Y38217D01*
X31083Y38188D01*
X31219Y38113D01*
X31226Y38109D01*
X31228Y38108D01*
X31230Y38107D01*
X33314Y37244D01*
X37244Y33314D01*
X39371Y28179D01*
X39371Y22621D01*
X37244Y17486D01*
X33314Y13556D01*
X28652Y11625D01*
X28569Y11574D01*
X28483Y11528D01*
X28465Y11509D01*
X28443Y11496D01*
X28381Y11421D01*
X28314Y11350D01*
X28303Y11326D01*
X28286Y11306D01*
X28251Y11215D01*
X28210Y11127D01*
X28207Y11101D01*
X28198Y11077D01*
X28194Y10979D01*
X28183Y10883D01*
X28189Y10857D01*
X28188Y10831D01*
X28215Y10737D01*
X28235Y10642D01*
X28249Y10620D01*
X28256Y10595D01*
X28312Y10515D01*
X28362Y10431D01*
X28382Y10414D01*
X28396Y10393D01*
X28475Y10334D01*
X28549Y10271D01*
X28573Y10261D01*
X28594Y10246D01*
X28686Y10216D01*
X28777Y10179D01*
X28809Y10176D01*
X28828Y10170D01*
X28861Y10170D01*
X28943Y10161D01*
X2489078Y10161D01*
X2489098Y10164D01*
G37*
%LPC*%
G36*
X38099Y174599D02*
X38099Y174599D01*
X38099Y175362D01*
X38097Y175378D01*
X38098Y175391D01*
X38097Y175395D01*
X38098Y175401D01*
X38076Y175503D01*
X38059Y175605D01*
X38050Y175622D01*
X38046Y175642D01*
X37993Y175731D01*
X37944Y175822D01*
X37930Y175836D01*
X37920Y175853D01*
X37841Y175920D01*
X37766Y175991D01*
X37748Y176000D01*
X37733Y176013D01*
X37637Y176052D01*
X37543Y176095D01*
X37523Y176097D01*
X37505Y176105D01*
X37338Y176123D01*
X15322Y176123D01*
X15552Y177574D01*
X16170Y179475D01*
X17077Y181257D01*
X18253Y182874D01*
X19666Y184287D01*
X21283Y185463D01*
X22164Y185911D01*
X22198Y185936D01*
X22236Y185953D01*
X22296Y186009D01*
X22363Y186057D01*
X22387Y186091D01*
X22418Y186120D01*
X22457Y186191D01*
X22504Y186258D01*
X22516Y186298D01*
X22536Y186335D01*
X22551Y186416D01*
X22574Y186494D01*
X22572Y186536D01*
X22580Y186577D01*
X22568Y186658D01*
X22565Y186740D01*
X22550Y186779D01*
X22544Y186821D01*
X22507Y186894D01*
X22478Y186970D01*
X22452Y187003D01*
X22433Y187040D01*
X22374Y187097D01*
X22322Y187160D01*
X22287Y187183D01*
X22257Y187212D01*
X22121Y187287D01*
X22114Y187291D01*
X22112Y187292D01*
X22110Y187293D01*
X20026Y188156D01*
X16096Y192086D01*
X13969Y197221D01*
X13969Y202779D01*
X16096Y207914D01*
X20026Y211844D01*
X20395Y211997D01*
X20456Y212034D01*
X20522Y212064D01*
X20560Y212099D01*
X20604Y212126D01*
X20650Y212182D01*
X20703Y212230D01*
X20728Y212276D01*
X20761Y212316D01*
X20787Y212383D01*
X20821Y212446D01*
X20831Y212497D01*
X20849Y212545D01*
X20852Y212617D01*
X20865Y212688D01*
X20858Y212739D01*
X20860Y212791D01*
X20840Y212860D01*
X20829Y212931D01*
X20806Y212977D01*
X20791Y213027D01*
X20750Y213086D01*
X20718Y213150D01*
X20681Y213187D01*
X20651Y213229D01*
X20593Y213272D01*
X20542Y213322D01*
X20479Y213357D01*
X20454Y213376D01*
X20431Y213383D01*
X20395Y213403D01*
X20026Y213556D01*
X16096Y217486D01*
X13969Y222621D01*
X13969Y228179D01*
X16096Y233314D01*
X20026Y237244D01*
X25161Y239371D01*
X51039Y239371D01*
X56174Y237244D01*
X60104Y233314D01*
X62231Y228179D01*
X62231Y222621D01*
X60104Y217486D01*
X56174Y213556D01*
X55805Y213403D01*
X55744Y213366D01*
X55678Y213336D01*
X55640Y213301D01*
X55596Y213274D01*
X55550Y213219D01*
X55497Y213170D01*
X55472Y213124D01*
X55439Y213084D01*
X55413Y213017D01*
X55379Y212954D01*
X55369Y212903D01*
X55351Y212855D01*
X55348Y212783D01*
X55335Y212712D01*
X55342Y212661D01*
X55340Y212609D01*
X55360Y212540D01*
X55371Y212469D01*
X55394Y212423D01*
X55409Y212373D01*
X55450Y212314D01*
X55482Y212250D01*
X55519Y212213D01*
X55549Y212171D01*
X55607Y212128D01*
X55658Y212078D01*
X55720Y212043D01*
X55746Y212024D01*
X55769Y212017D01*
X55805Y211997D01*
X56174Y211844D01*
X60104Y207914D01*
X62231Y202779D01*
X62231Y197221D01*
X60104Y192086D01*
X56174Y188156D01*
X54090Y187293D01*
X54054Y187271D01*
X54015Y187257D01*
X53951Y187207D01*
X53881Y187163D01*
X53854Y187131D01*
X53821Y187105D01*
X53776Y187037D01*
X53724Y186974D01*
X53709Y186935D01*
X53686Y186900D01*
X53665Y186821D01*
X53636Y186744D01*
X53634Y186703D01*
X53623Y186662D01*
X53629Y186580D01*
X53626Y186499D01*
X53637Y186458D01*
X53640Y186416D01*
X53671Y186341D01*
X53694Y186262D01*
X53718Y186228D01*
X53734Y186189D01*
X53788Y186127D01*
X53834Y186060D01*
X53868Y186035D01*
X53896Y186004D01*
X54025Y185919D01*
X54032Y185914D01*
X54033Y185913D01*
X54036Y185911D01*
X54917Y185463D01*
X56534Y184287D01*
X57947Y182874D01*
X59123Y181257D01*
X60030Y179475D01*
X60648Y177574D01*
X60878Y176123D01*
X38862Y176123D01*
X38842Y176120D01*
X38823Y176122D01*
X38721Y176100D01*
X38619Y176083D01*
X38602Y176074D01*
X38582Y176070D01*
X38493Y176017D01*
X38402Y175968D01*
X38388Y175954D01*
X38371Y175944D01*
X38304Y175865D01*
X38233Y175790D01*
X38224Y175772D01*
X38211Y175757D01*
X38173Y175661D01*
X38129Y175567D01*
X38127Y175547D01*
X38119Y175529D01*
X38101Y175362D01*
X38101Y174599D01*
X38099Y174599D01*
G37*
%LPD*%
%LPC*%
G36*
X78282Y191363D02*
X78282Y191363D01*
X75108Y192678D01*
X72678Y195108D01*
X71363Y198282D01*
X71363Y201718D01*
X72678Y204892D01*
X75108Y207322D01*
X78282Y208637D01*
X121718Y208637D01*
X124892Y207322D01*
X127322Y204892D01*
X128637Y201718D01*
X128637Y198282D01*
X127322Y195108D01*
X124892Y192678D01*
X121718Y191363D01*
X78282Y191363D01*
G37*
%LPD*%
%LPC*%
G36*
X472942Y13509D02*
X472942Y13509D01*
X470709Y15742D01*
X470709Y35058D01*
X472942Y37291D01*
X492258Y37291D01*
X494491Y35058D01*
X494491Y15742D01*
X492258Y13509D01*
X472942Y13509D01*
G37*
%LPD*%
%LPC*%
G36*
X904742Y13509D02*
X904742Y13509D01*
X902509Y15742D01*
X902509Y35058D01*
X904742Y37291D01*
X924058Y37291D01*
X926291Y35058D01*
X926291Y15742D01*
X924058Y13509D01*
X904742Y13509D01*
G37*
%LPD*%
%LPC*%
G36*
X650742Y13509D02*
X650742Y13509D01*
X648509Y15742D01*
X648509Y35058D01*
X650742Y37291D01*
X670058Y37291D01*
X672291Y35058D01*
X672291Y15742D01*
X670058Y13509D01*
X650742Y13509D01*
G37*
%LPD*%
%LPC*%
G36*
X726942Y13509D02*
X726942Y13509D01*
X724709Y15742D01*
X724709Y35058D01*
X726942Y37291D01*
X746258Y37291D01*
X748491Y35058D01*
X748491Y15742D01*
X746258Y13509D01*
X726942Y13509D01*
G37*
%LPD*%
%LPC*%
G36*
X752342Y13509D02*
X752342Y13509D01*
X750109Y15742D01*
X750109Y35058D01*
X752342Y37291D01*
X771658Y37291D01*
X773891Y35058D01*
X773891Y15742D01*
X771658Y13509D01*
X752342Y13509D01*
G37*
%LPD*%
%LPC*%
G36*
X803142Y13509D02*
X803142Y13509D01*
X800909Y15742D01*
X800909Y35058D01*
X803142Y37291D01*
X822458Y37291D01*
X824691Y35058D01*
X824691Y15742D01*
X822458Y13509D01*
X803142Y13509D01*
G37*
%LPD*%
%LPC*%
G36*
X828542Y13509D02*
X828542Y13509D01*
X826309Y15742D01*
X826309Y35058D01*
X828542Y37291D01*
X847858Y37291D01*
X850091Y35058D01*
X850091Y15742D01*
X847858Y13509D01*
X828542Y13509D01*
G37*
%LPD*%
%LPC*%
G36*
X853942Y13509D02*
X853942Y13509D01*
X851709Y15742D01*
X851709Y35058D01*
X853942Y37291D01*
X873258Y37291D01*
X875491Y35058D01*
X875491Y15742D01*
X873258Y13509D01*
X853942Y13509D01*
G37*
%LPD*%
%LPC*%
G36*
X625342Y13509D02*
X625342Y13509D01*
X623109Y15742D01*
X623109Y35058D01*
X625342Y37291D01*
X644658Y37291D01*
X646891Y35058D01*
X646891Y15742D01*
X644658Y13509D01*
X625342Y13509D01*
G37*
%LPD*%
%LPC*%
G36*
X676142Y13509D02*
X676142Y13509D01*
X673909Y15742D01*
X673909Y35058D01*
X676142Y37291D01*
X695458Y37291D01*
X697691Y35058D01*
X697691Y15742D01*
X695458Y13509D01*
X676142Y13509D01*
G37*
%LPD*%
%LPC*%
G36*
X1412742Y242109D02*
X1412742Y242109D01*
X1410509Y244342D01*
X1410509Y263658D01*
X1412742Y265891D01*
X1432058Y265891D01*
X1434291Y263658D01*
X1434291Y244342D01*
X1432058Y242109D01*
X1412742Y242109D01*
G37*
%LPD*%
%LPC*%
G36*
X701542Y13509D02*
X701542Y13509D01*
X699309Y15742D01*
X699309Y35058D01*
X701542Y37291D01*
X720858Y37291D01*
X723091Y35058D01*
X723091Y15742D01*
X720858Y13509D01*
X701542Y13509D01*
G37*
%LPD*%
%LPC*%
G36*
X975531Y13489D02*
X975531Y13489D01*
X971153Y15303D01*
X967803Y18653D01*
X965989Y23031D01*
X965989Y27769D01*
X967803Y32147D01*
X971153Y35497D01*
X975531Y37311D01*
X980269Y37311D01*
X984647Y35497D01*
X987997Y32147D01*
X989811Y27769D01*
X989811Y23031D01*
X987997Y18653D01*
X984647Y15303D01*
X980269Y13489D01*
X975531Y13489D01*
G37*
%LPD*%
%LPC*%
G36*
X429431Y13489D02*
X429431Y13489D01*
X425053Y15303D01*
X421703Y18653D01*
X419889Y23031D01*
X419889Y27769D01*
X421703Y32147D01*
X425053Y35497D01*
X429431Y37311D01*
X434169Y37311D01*
X438547Y35497D01*
X441897Y32147D01*
X443711Y27769D01*
X443711Y23031D01*
X441897Y18653D01*
X438547Y15303D01*
X434169Y13489D01*
X429431Y13489D01*
G37*
%LPD*%
%LPC*%
G36*
X1216835Y38909D02*
X1216835Y38909D01*
X1212464Y40720D01*
X1209120Y44064D01*
X1207309Y48435D01*
X1207309Y53165D01*
X1209120Y57536D01*
X1212464Y60880D01*
X1216835Y62691D01*
X1221565Y62691D01*
X1225936Y60880D01*
X1229280Y57536D01*
X1231091Y53165D01*
X1231091Y48435D01*
X1229280Y44064D01*
X1225936Y40720D01*
X1221565Y38909D01*
X1216835Y38909D01*
G37*
%LPD*%
%LPC*%
G36*
X1845485Y51609D02*
X1845485Y51609D01*
X1841114Y53420D01*
X1837770Y56764D01*
X1835959Y61135D01*
X1835959Y65865D01*
X1837770Y70236D01*
X1841114Y73580D01*
X1845485Y75391D01*
X1850215Y75391D01*
X1854586Y73580D01*
X1857930Y70236D01*
X1859741Y65865D01*
X1859741Y61135D01*
X1857930Y56764D01*
X1854586Y53420D01*
X1850215Y51609D01*
X1845485Y51609D01*
G37*
%LPD*%
%LPC*%
G36*
X1420035Y38909D02*
X1420035Y38909D01*
X1415664Y40720D01*
X1412320Y44064D01*
X1410509Y48435D01*
X1410509Y53165D01*
X1412320Y57536D01*
X1415664Y60880D01*
X1420035Y62691D01*
X1424765Y62691D01*
X1429136Y60880D01*
X1432480Y57536D01*
X1434291Y53165D01*
X1434291Y48435D01*
X1432480Y44064D01*
X1429136Y40720D01*
X1424765Y38909D01*
X1420035Y38909D01*
G37*
%LPD*%
%LPC*%
G36*
X1039035Y89709D02*
X1039035Y89709D01*
X1034664Y91520D01*
X1031320Y94864D01*
X1029509Y99235D01*
X1029509Y103965D01*
X1031320Y108336D01*
X1034664Y111680D01*
X1039035Y113491D01*
X1043765Y113491D01*
X1048136Y111680D01*
X1051480Y108336D01*
X1053291Y103965D01*
X1053291Y99235D01*
X1051480Y94864D01*
X1048136Y91520D01*
X1043765Y89709D01*
X1039035Y89709D01*
G37*
%LPD*%
%LPC*%
G36*
X1877235Y89709D02*
X1877235Y89709D01*
X1872864Y91520D01*
X1869520Y94864D01*
X1867709Y99235D01*
X1867709Y103965D01*
X1869520Y108336D01*
X1872864Y111680D01*
X1877235Y113491D01*
X1881965Y113491D01*
X1886336Y111680D01*
X1889680Y108336D01*
X1891491Y103965D01*
X1891491Y99235D01*
X1889680Y94864D01*
X1886336Y91520D01*
X1881965Y89709D01*
X1877235Y89709D01*
G37*
%LPD*%
%LPC*%
G36*
X1216835Y89709D02*
X1216835Y89709D01*
X1212464Y91520D01*
X1209120Y94864D01*
X1207309Y99235D01*
X1207309Y103965D01*
X1209120Y108336D01*
X1212464Y111680D01*
X1216835Y113491D01*
X1221565Y113491D01*
X1225936Y111680D01*
X1229280Y108336D01*
X1231091Y103965D01*
X1231091Y99235D01*
X1229280Y94864D01*
X1225936Y91520D01*
X1221565Y89709D01*
X1216835Y89709D01*
G37*
%LPD*%
%LPC*%
G36*
X378635Y38909D02*
X378635Y38909D01*
X374264Y40720D01*
X370920Y44064D01*
X369109Y48435D01*
X369109Y53165D01*
X370920Y57536D01*
X374264Y60880D01*
X378635Y62691D01*
X383365Y62691D01*
X387736Y60880D01*
X391080Y57536D01*
X392891Y53165D01*
X392891Y48435D01*
X391080Y44064D01*
X387736Y40720D01*
X383365Y38909D01*
X378635Y38909D01*
G37*
%LPD*%
%LPC*%
G36*
X1216835Y64309D02*
X1216835Y64309D01*
X1212464Y66120D01*
X1209120Y69464D01*
X1207309Y73835D01*
X1207309Y78565D01*
X1209120Y82936D01*
X1212464Y86280D01*
X1216835Y88091D01*
X1221565Y88091D01*
X1225936Y86280D01*
X1229280Y82936D01*
X1231091Y78565D01*
X1231091Y73835D01*
X1229280Y69464D01*
X1225936Y66120D01*
X1221565Y64309D01*
X1216835Y64309D01*
G37*
%LPD*%
%LPC*%
G36*
X1877235Y64309D02*
X1877235Y64309D01*
X1872864Y66120D01*
X1869520Y69464D01*
X1867709Y73835D01*
X1867709Y78565D01*
X1869520Y82936D01*
X1872864Y86280D01*
X1877235Y88091D01*
X1881965Y88091D01*
X1886336Y86280D01*
X1889680Y82936D01*
X1891491Y78565D01*
X1891491Y73835D01*
X1889680Y69464D01*
X1886336Y66120D01*
X1881965Y64309D01*
X1877235Y64309D01*
G37*
%LPD*%
%LPC*%
G36*
X378635Y64309D02*
X378635Y64309D01*
X374264Y66120D01*
X370920Y69464D01*
X369109Y73835D01*
X369109Y78565D01*
X370920Y82936D01*
X374264Y86280D01*
X378635Y88091D01*
X383365Y88091D01*
X387736Y86280D01*
X391080Y82936D01*
X392891Y78565D01*
X392891Y73835D01*
X391080Y69464D01*
X387736Y66120D01*
X383365Y64309D01*
X378635Y64309D01*
G37*
%LPD*%
%LPC*%
G36*
X1845485Y26209D02*
X1845485Y26209D01*
X1841114Y28020D01*
X1837770Y31364D01*
X1835959Y35735D01*
X1835959Y40465D01*
X1837770Y44836D01*
X1841114Y48180D01*
X1845485Y49991D01*
X1850215Y49991D01*
X1854586Y48180D01*
X1857930Y44836D01*
X1859741Y40465D01*
X1859741Y35735D01*
X1857930Y31364D01*
X1854586Y28020D01*
X1850215Y26209D01*
X1845485Y26209D01*
G37*
%LPD*%
%LPC*%
G36*
X1845485Y153209D02*
X1845485Y153209D01*
X1841114Y155020D01*
X1837770Y158364D01*
X1835959Y162735D01*
X1835959Y167465D01*
X1837770Y171836D01*
X1841114Y175180D01*
X1845485Y176991D01*
X1850215Y176991D01*
X1854586Y175180D01*
X1857930Y171836D01*
X1859741Y167465D01*
X1859741Y162735D01*
X1857930Y158364D01*
X1854586Y155020D01*
X1850215Y153209D01*
X1845485Y153209D01*
G37*
%LPD*%
%LPC*%
G36*
X1039035Y38909D02*
X1039035Y38909D01*
X1034664Y40720D01*
X1031320Y44064D01*
X1029509Y48435D01*
X1029509Y53165D01*
X1031320Y57536D01*
X1034664Y60880D01*
X1039035Y62691D01*
X1043765Y62691D01*
X1048136Y60880D01*
X1051480Y57536D01*
X1053291Y53165D01*
X1053291Y48435D01*
X1051480Y44064D01*
X1048136Y40720D01*
X1043765Y38909D01*
X1039035Y38909D01*
G37*
%LPD*%
%LPC*%
G36*
X1039035Y115109D02*
X1039035Y115109D01*
X1034664Y116920D01*
X1031320Y120264D01*
X1029509Y124635D01*
X1029509Y129365D01*
X1031320Y133736D01*
X1034664Y137080D01*
X1039035Y138891D01*
X1043765Y138891D01*
X1048136Y137080D01*
X1051480Y133736D01*
X1053291Y129365D01*
X1053291Y124635D01*
X1051480Y120264D01*
X1048136Y116920D01*
X1043765Y115109D01*
X1039035Y115109D01*
G37*
%LPD*%
%LPC*%
G36*
X1039035Y216709D02*
X1039035Y216709D01*
X1034664Y218520D01*
X1031320Y221864D01*
X1029509Y226235D01*
X1029509Y230965D01*
X1031320Y235336D01*
X1034664Y238680D01*
X1039035Y240491D01*
X1043765Y240491D01*
X1048136Y238680D01*
X1051480Y235336D01*
X1053291Y230965D01*
X1053291Y226235D01*
X1051480Y221864D01*
X1048136Y218520D01*
X1043765Y216709D01*
X1039035Y216709D01*
G37*
%LPD*%
%LPC*%
G36*
X1216835Y216709D02*
X1216835Y216709D01*
X1212464Y218520D01*
X1209120Y221864D01*
X1207309Y226235D01*
X1207309Y230965D01*
X1209120Y235336D01*
X1212464Y238680D01*
X1216835Y240491D01*
X1221565Y240491D01*
X1225936Y238680D01*
X1229280Y235336D01*
X1231091Y230965D01*
X1231091Y226235D01*
X1229280Y221864D01*
X1225936Y218520D01*
X1221565Y216709D01*
X1216835Y216709D01*
G37*
%LPD*%
%LPC*%
G36*
X378635Y216709D02*
X378635Y216709D01*
X374264Y218520D01*
X370920Y221864D01*
X369109Y226235D01*
X369109Y230965D01*
X370920Y235336D01*
X374264Y238680D01*
X378635Y240491D01*
X383365Y240491D01*
X387736Y238680D01*
X391080Y235336D01*
X392891Y230965D01*
X392891Y226235D01*
X391080Y221864D01*
X387736Y218520D01*
X383365Y216709D01*
X378635Y216709D01*
G37*
%LPD*%
%LPC*%
G36*
X1877235Y191309D02*
X1877235Y191309D01*
X1872864Y193120D01*
X1869520Y196464D01*
X1867709Y200835D01*
X1867709Y205565D01*
X1869520Y209936D01*
X1872864Y213280D01*
X1877235Y215091D01*
X1881965Y215091D01*
X1886336Y213280D01*
X1889680Y209936D01*
X1891491Y205565D01*
X1891491Y200835D01*
X1889680Y196464D01*
X1886336Y193120D01*
X1881965Y191309D01*
X1877235Y191309D01*
G37*
%LPD*%
%LPC*%
G36*
X1420035Y191309D02*
X1420035Y191309D01*
X1415664Y193120D01*
X1412320Y196464D01*
X1410509Y200835D01*
X1410509Y205565D01*
X1412320Y209936D01*
X1415664Y213280D01*
X1420035Y215091D01*
X1424765Y215091D01*
X1429136Y213280D01*
X1432480Y209936D01*
X1434291Y205565D01*
X1434291Y200835D01*
X1432480Y196464D01*
X1429136Y193120D01*
X1424765Y191309D01*
X1420035Y191309D01*
G37*
%LPD*%
%LPC*%
G36*
X378635Y191309D02*
X378635Y191309D01*
X374264Y193120D01*
X370920Y196464D01*
X369109Y200835D01*
X369109Y205565D01*
X370920Y209936D01*
X374264Y213280D01*
X378635Y215091D01*
X383365Y215091D01*
X387736Y213280D01*
X391080Y209936D01*
X392891Y205565D01*
X392891Y200835D01*
X391080Y196464D01*
X387736Y193120D01*
X383365Y191309D01*
X378635Y191309D01*
G37*
%LPD*%
%LPC*%
G36*
X1877235Y13509D02*
X1877235Y13509D01*
X1872864Y15320D01*
X1869520Y18664D01*
X1867709Y23035D01*
X1867709Y27765D01*
X1869520Y32136D01*
X1872864Y35480D01*
X1877235Y37291D01*
X1881965Y37291D01*
X1886336Y35480D01*
X1889680Y32136D01*
X1891491Y27765D01*
X1891491Y23035D01*
X1889680Y18664D01*
X1886336Y15320D01*
X1881965Y13509D01*
X1877235Y13509D01*
G37*
%LPD*%
%LPC*%
G36*
X1877235Y165909D02*
X1877235Y165909D01*
X1872864Y167720D01*
X1869520Y171064D01*
X1867709Y175435D01*
X1867709Y180165D01*
X1869520Y184536D01*
X1872864Y187880D01*
X1877235Y189691D01*
X1881965Y189691D01*
X1886336Y187880D01*
X1889680Y184536D01*
X1891491Y180165D01*
X1891491Y175435D01*
X1889680Y171064D01*
X1886336Y167720D01*
X1881965Y165909D01*
X1877235Y165909D01*
G37*
%LPD*%
%LPC*%
G36*
X1216835Y115109D02*
X1216835Y115109D01*
X1212464Y116920D01*
X1209120Y120264D01*
X1207309Y124635D01*
X1207309Y129365D01*
X1209120Y133736D01*
X1212464Y137080D01*
X1216835Y138891D01*
X1221565Y138891D01*
X1225936Y137080D01*
X1229280Y133736D01*
X1231091Y129365D01*
X1231091Y124635D01*
X1229280Y120264D01*
X1225936Y116920D01*
X1221565Y115109D01*
X1216835Y115109D01*
G37*
%LPD*%
%LPC*%
G36*
X39623Y161899D02*
X39623Y161899D01*
X39623Y173077D01*
X60878Y173077D01*
X60648Y171626D01*
X60030Y169725D01*
X59123Y167943D01*
X57947Y166326D01*
X56534Y164913D01*
X54917Y163737D01*
X53135Y162830D01*
X51234Y162212D01*
X49260Y161899D01*
X39623Y161899D01*
G37*
%LPD*%
%LPC*%
G36*
X26940Y161899D02*
X26940Y161899D01*
X24966Y162212D01*
X23065Y162830D01*
X21283Y163737D01*
X19666Y164913D01*
X18253Y166326D01*
X17077Y167943D01*
X16170Y169725D01*
X15552Y171626D01*
X15322Y173077D01*
X36577Y173077D01*
X36577Y161899D01*
X26940Y161899D01*
G37*
%LPD*%
%LPC*%
G36*
X26923Y52323D02*
X26923Y52323D01*
X26923Y63418D01*
X28374Y63188D01*
X30275Y62570D01*
X32057Y61663D01*
X33674Y60487D01*
X35087Y59074D01*
X36263Y57457D01*
X37170Y55675D01*
X37788Y53774D01*
X38018Y52323D01*
X26923Y52323D01*
G37*
%LPD*%
%LPC*%
G36*
X12782Y52323D02*
X12782Y52323D01*
X13012Y53774D01*
X13630Y55675D01*
X14537Y57457D01*
X15713Y59074D01*
X17126Y60487D01*
X18743Y61663D01*
X20525Y62570D01*
X22426Y63188D01*
X23877Y63418D01*
X23877Y52323D01*
X12782Y52323D01*
G37*
%LPD*%
%LPC*%
G36*
X890499Y26899D02*
X890499Y26899D01*
X890499Y36021D01*
X897414Y36021D01*
X898061Y35848D01*
X898640Y35513D01*
X899113Y35040D01*
X899448Y34461D01*
X899621Y33814D01*
X899621Y26899D01*
X890499Y26899D01*
G37*
%LPD*%
%LPC*%
G36*
X878379Y26899D02*
X878379Y26899D01*
X878379Y33814D01*
X878552Y34461D01*
X878887Y35040D01*
X879360Y35513D01*
X879939Y35848D01*
X880586Y36021D01*
X887501Y36021D01*
X887501Y26899D01*
X878379Y26899D01*
G37*
%LPD*%
%LPC*%
G36*
X890499Y14779D02*
X890499Y14779D01*
X890499Y23901D01*
X899621Y23901D01*
X899621Y16986D01*
X899448Y16339D01*
X899113Y15760D01*
X898640Y15287D01*
X898061Y14952D01*
X897414Y14779D01*
X890499Y14779D01*
G37*
%LPD*%
%LPC*%
G36*
X880586Y14779D02*
X880586Y14779D01*
X879939Y14952D01*
X879360Y15287D01*
X878887Y15760D01*
X878552Y16339D01*
X878379Y16986D01*
X878379Y23901D01*
X887501Y23901D01*
X887501Y14779D01*
X880586Y14779D01*
G37*
%LPD*%
%LPC*%
G36*
X1042899Y77699D02*
X1042899Y77699D01*
X1042899Y86716D01*
X1043887Y86559D01*
X1045477Y86043D01*
X1046967Y85284D01*
X1048319Y84301D01*
X1049501Y83119D01*
X1050484Y81767D01*
X1051243Y80277D01*
X1051759Y78687D01*
X1051916Y77699D01*
X1042899Y77699D01*
G37*
%LPD*%
%LPC*%
G36*
X1423899Y230099D02*
X1423899Y230099D01*
X1423899Y239116D01*
X1424887Y238959D01*
X1426477Y238443D01*
X1427967Y237684D01*
X1429319Y236701D01*
X1430501Y235519D01*
X1431484Y234167D01*
X1432243Y232677D01*
X1432759Y231087D01*
X1432916Y230099D01*
X1423899Y230099D01*
G37*
%LPD*%
%LPC*%
G36*
X1881099Y52299D02*
X1881099Y52299D01*
X1881099Y61316D01*
X1882087Y61159D01*
X1883677Y60643D01*
X1885167Y59884D01*
X1886519Y58901D01*
X1887701Y57719D01*
X1888684Y56367D01*
X1889443Y54877D01*
X1889959Y53287D01*
X1890116Y52299D01*
X1881099Y52299D01*
G37*
%LPD*%
%LPC*%
G36*
X1042899Y204699D02*
X1042899Y204699D01*
X1042899Y213716D01*
X1043887Y213559D01*
X1045477Y213043D01*
X1046967Y212284D01*
X1048319Y211301D01*
X1049501Y210119D01*
X1050484Y208767D01*
X1051243Y207277D01*
X1051759Y205687D01*
X1051916Y204699D01*
X1042899Y204699D01*
G37*
%LPD*%
%LPC*%
G36*
X1220699Y204699D02*
X1220699Y204699D01*
X1220699Y213716D01*
X1221687Y213559D01*
X1223277Y213043D01*
X1224767Y212284D01*
X1226119Y211301D01*
X1227301Y210119D01*
X1228284Y208767D01*
X1229043Y207277D01*
X1229559Y205687D01*
X1229716Y204699D01*
X1220699Y204699D01*
G37*
%LPD*%
%LPC*%
G36*
X382499Y103099D02*
X382499Y103099D01*
X382499Y112116D01*
X383487Y111959D01*
X385077Y111443D01*
X386567Y110684D01*
X387919Y109701D01*
X389101Y108519D01*
X390084Y107167D01*
X390843Y105677D01*
X391359Y104087D01*
X391516Y103099D01*
X382499Y103099D01*
G37*
%LPD*%
%LPC*%
G36*
X1849349Y141199D02*
X1849349Y141199D01*
X1849349Y150216D01*
X1850337Y150059D01*
X1851927Y149543D01*
X1853417Y148784D01*
X1854769Y147801D01*
X1855951Y146619D01*
X1856934Y145267D01*
X1857693Y143777D01*
X1858209Y142187D01*
X1858366Y141199D01*
X1849349Y141199D01*
G37*
%LPD*%
%LPC*%
G36*
X1411884Y230099D02*
X1411884Y230099D01*
X1412041Y231087D01*
X1412557Y232677D01*
X1413316Y234167D01*
X1414299Y235519D01*
X1415481Y236701D01*
X1416833Y237684D01*
X1418323Y238443D01*
X1419913Y238959D01*
X1420901Y239116D01*
X1420901Y230099D01*
X1411884Y230099D01*
G37*
%LPD*%
%LPC*%
G36*
X1042899Y74701D02*
X1042899Y74701D01*
X1051916Y74701D01*
X1051759Y73713D01*
X1051243Y72123D01*
X1050484Y70633D01*
X1049501Y69281D01*
X1048319Y68099D01*
X1046967Y67116D01*
X1045477Y66357D01*
X1043887Y65841D01*
X1042899Y65684D01*
X1042899Y74701D01*
G37*
%LPD*%
%LPC*%
G36*
X1423899Y227101D02*
X1423899Y227101D01*
X1432916Y227101D01*
X1432759Y226113D01*
X1432243Y224523D01*
X1431484Y223033D01*
X1430501Y221681D01*
X1429319Y220499D01*
X1427967Y219516D01*
X1426477Y218757D01*
X1424887Y218241D01*
X1423899Y218084D01*
X1423899Y227101D01*
G37*
%LPD*%
%LPC*%
G36*
X1208684Y204699D02*
X1208684Y204699D01*
X1208841Y205687D01*
X1209357Y207277D01*
X1210116Y208767D01*
X1211099Y210119D01*
X1212281Y211301D01*
X1213633Y212284D01*
X1215123Y213043D01*
X1216713Y213559D01*
X1217701Y213716D01*
X1217701Y204699D01*
X1208684Y204699D01*
G37*
%LPD*%
%LPC*%
G36*
X1030884Y204699D02*
X1030884Y204699D01*
X1031041Y205687D01*
X1031557Y207277D01*
X1032316Y208767D01*
X1033299Y210119D01*
X1034481Y211301D01*
X1035833Y212284D01*
X1037323Y213043D01*
X1038913Y213559D01*
X1039901Y213716D01*
X1039901Y204699D01*
X1030884Y204699D01*
G37*
%LPD*%
%LPC*%
G36*
X1220699Y201701D02*
X1220699Y201701D01*
X1229716Y201701D01*
X1229559Y200713D01*
X1229043Y199123D01*
X1228284Y197633D01*
X1227301Y196281D01*
X1226119Y195099D01*
X1224767Y194116D01*
X1223277Y193357D01*
X1221687Y192841D01*
X1220699Y192684D01*
X1220699Y201701D01*
G37*
%LPD*%
%LPC*%
G36*
X1042899Y201701D02*
X1042899Y201701D01*
X1051916Y201701D01*
X1051759Y200713D01*
X1051243Y199123D01*
X1050484Y197633D01*
X1049501Y196281D01*
X1048319Y195099D01*
X1046967Y194116D01*
X1045477Y193357D01*
X1043887Y192841D01*
X1042899Y192684D01*
X1042899Y201701D01*
G37*
%LPD*%
%LPC*%
G36*
X1837334Y141199D02*
X1837334Y141199D01*
X1837491Y142187D01*
X1838007Y143777D01*
X1838766Y145267D01*
X1839749Y146619D01*
X1840931Y147801D01*
X1842283Y148784D01*
X1843773Y149543D01*
X1845363Y150059D01*
X1846351Y150216D01*
X1846351Y141199D01*
X1837334Y141199D01*
G37*
%LPD*%
%LPC*%
G36*
X1849349Y138201D02*
X1849349Y138201D01*
X1858366Y138201D01*
X1858209Y137213D01*
X1857693Y135623D01*
X1856934Y134133D01*
X1855951Y132781D01*
X1854769Y131599D01*
X1853417Y130616D01*
X1851927Y129857D01*
X1850337Y129341D01*
X1849349Y129184D01*
X1849349Y138201D01*
G37*
%LPD*%
%LPC*%
G36*
X1881099Y49301D02*
X1881099Y49301D01*
X1890116Y49301D01*
X1889959Y48313D01*
X1889443Y46723D01*
X1888684Y45233D01*
X1887701Y43881D01*
X1886519Y42699D01*
X1885167Y41716D01*
X1883677Y40957D01*
X1882087Y40441D01*
X1881099Y40284D01*
X1881099Y49301D01*
G37*
%LPD*%
%LPC*%
G36*
X370484Y103099D02*
X370484Y103099D01*
X370641Y104087D01*
X371157Y105677D01*
X371916Y107167D01*
X372899Y108519D01*
X374081Y109701D01*
X375433Y110684D01*
X376923Y111443D01*
X378513Y111959D01*
X379501Y112116D01*
X379501Y103099D01*
X370484Y103099D01*
G37*
%LPD*%
%LPC*%
G36*
X1869084Y52299D02*
X1869084Y52299D01*
X1869241Y53287D01*
X1869757Y54877D01*
X1870516Y56367D01*
X1871499Y57719D01*
X1872681Y58901D01*
X1874033Y59884D01*
X1875523Y60643D01*
X1877113Y61159D01*
X1878101Y61316D01*
X1878101Y52299D01*
X1869084Y52299D01*
G37*
%LPD*%
%LPC*%
G36*
X382499Y100101D02*
X382499Y100101D01*
X391516Y100101D01*
X391359Y99113D01*
X390843Y97523D01*
X390084Y96033D01*
X389101Y94681D01*
X387919Y93499D01*
X386567Y92516D01*
X385077Y91757D01*
X383487Y91241D01*
X382499Y91084D01*
X382499Y100101D01*
G37*
%LPD*%
%LPC*%
G36*
X1030884Y77699D02*
X1030884Y77699D01*
X1031041Y78687D01*
X1031557Y80277D01*
X1032316Y81767D01*
X1033299Y83119D01*
X1034481Y84301D01*
X1035833Y85284D01*
X1037323Y86043D01*
X1038913Y86559D01*
X1039901Y86716D01*
X1039901Y77699D01*
X1030884Y77699D01*
G37*
%LPD*%
%LPC*%
G36*
X1038913Y192841D02*
X1038913Y192841D01*
X1037323Y193357D01*
X1035833Y194116D01*
X1034481Y195099D01*
X1033299Y196281D01*
X1032316Y197633D01*
X1031557Y199123D01*
X1031041Y200713D01*
X1030884Y201701D01*
X1039901Y201701D01*
X1039901Y192684D01*
X1038913Y192841D01*
G37*
%LPD*%
%LPC*%
G36*
X1845363Y129341D02*
X1845363Y129341D01*
X1843773Y129857D01*
X1842283Y130616D01*
X1840931Y131599D01*
X1839749Y132781D01*
X1838766Y134133D01*
X1838007Y135623D01*
X1837491Y137213D01*
X1837334Y138201D01*
X1846351Y138201D01*
X1846351Y129184D01*
X1845363Y129341D01*
G37*
%LPD*%
%LPC*%
G36*
X1216713Y192841D02*
X1216713Y192841D01*
X1215123Y193357D01*
X1213633Y194116D01*
X1212281Y195099D01*
X1211099Y196281D01*
X1210116Y197633D01*
X1209357Y199123D01*
X1208841Y200713D01*
X1208684Y201701D01*
X1217701Y201701D01*
X1217701Y192684D01*
X1216713Y192841D01*
G37*
%LPD*%
%LPC*%
G36*
X1877113Y40441D02*
X1877113Y40441D01*
X1875523Y40957D01*
X1874033Y41716D01*
X1872681Y42699D01*
X1871499Y43881D01*
X1870516Y45233D01*
X1869757Y46723D01*
X1869241Y48313D01*
X1869084Y49301D01*
X1878101Y49301D01*
X1878101Y40284D01*
X1877113Y40441D01*
G37*
%LPD*%
%LPC*%
G36*
X1419913Y218241D02*
X1419913Y218241D01*
X1418323Y218757D01*
X1416833Y219516D01*
X1415481Y220499D01*
X1414299Y221681D01*
X1413316Y223033D01*
X1412557Y224523D01*
X1412041Y226113D01*
X1411884Y227101D01*
X1420901Y227101D01*
X1420901Y218084D01*
X1419913Y218241D01*
G37*
%LPD*%
%LPC*%
G36*
X378513Y91241D02*
X378513Y91241D01*
X376923Y91757D01*
X375433Y92516D01*
X374081Y93499D01*
X372899Y94681D01*
X371916Y96033D01*
X371157Y97523D01*
X370641Y99113D01*
X370484Y100101D01*
X379501Y100101D01*
X379501Y91084D01*
X378513Y91241D01*
G37*
%LPD*%
%LPC*%
G36*
X1038913Y65841D02*
X1038913Y65841D01*
X1037323Y66357D01*
X1035833Y67116D01*
X1034481Y68099D01*
X1033299Y69281D01*
X1032316Y70633D01*
X1031557Y72123D01*
X1031041Y73713D01*
X1030884Y74701D01*
X1039901Y74701D01*
X1039901Y65684D01*
X1038913Y65841D01*
G37*
%LPD*%
D10*
X914400Y279400D03*
D11*
X889000Y279400D03*
X863600Y279400D03*
X838200Y279400D03*
X812800Y279400D03*
X787400Y279400D03*
X762000Y279400D03*
X736600Y279400D03*
X711200Y279400D03*
X685800Y279400D03*
X660400Y279400D03*
X635000Y279400D03*
X609600Y279400D03*
X584200Y279400D03*
X558800Y279400D03*
D10*
X482600Y25400D03*
X508000Y25400D03*
X533400Y25400D03*
X558800Y25400D03*
X584200Y25400D03*
X609600Y25400D03*
X635000Y25400D03*
X660400Y25400D03*
X685800Y25400D03*
X711200Y25400D03*
X736600Y25400D03*
X762000Y25400D03*
X787400Y25400D03*
X812800Y25400D03*
X838200Y25400D03*
X863600Y25400D03*
X889000Y25400D03*
X914400Y25400D03*
D11*
X533400Y279400D03*
X508000Y279400D03*
X482600Y279400D03*
X1879600Y203200D03*
X1879600Y177800D03*
X1879600Y152400D03*
X1879600Y127000D03*
X1879600Y101600D03*
X1879600Y76200D03*
X1879600Y50800D03*
X1879600Y25400D03*
D12*
X25400Y25400D03*
X25400Y50800D03*
D11*
X381000Y50800D03*
X381000Y76200D03*
X381000Y101600D03*
X381000Y127000D03*
X381000Y152400D03*
X381000Y177800D03*
X381000Y203200D03*
X381000Y228600D03*
X1041400Y50800D03*
X1041400Y76200D03*
X1041400Y101600D03*
X1041400Y127000D03*
X1041400Y152400D03*
X1041400Y177800D03*
X1041400Y203200D03*
X1041400Y228600D03*
X1219200Y50800D03*
X1219200Y76200D03*
X1219200Y101600D03*
X1219200Y127000D03*
X1219200Y152400D03*
X1219200Y177800D03*
X1219200Y203200D03*
X1219200Y228600D03*
D10*
X1422400Y254000D03*
D11*
X1422400Y228600D03*
X1422400Y203200D03*
X1422400Y152400D03*
X1422400Y127000D03*
X1422400Y101600D03*
X1422400Y76200D03*
X1422400Y50800D03*
X1422400Y177800D03*
X1847850Y38100D03*
X1847850Y63500D03*
X1847850Y88900D03*
X1847850Y114300D03*
X1847850Y139700D03*
X1847850Y165100D03*
D13*
X48260Y225400D02*
X27940Y225400D01*
X27940Y174600D02*
X48260Y174600D01*
X48260Y200000D02*
X27940Y200000D01*
D14*
X385000Y130000D02*
X390000Y130000D01*
X420000Y160000D01*
X520000Y160000D01*
X570000Y210000D01*
X620000Y210000D01*
X635000Y225000D01*
X385000Y130000D02*
X381000Y127000D01*
X1410000Y155000D02*
X1420000Y155000D01*
X1410000Y155000D02*
X1310000Y255000D01*
X1025000Y255000D01*
X995000Y225000D01*
X635000Y225000D01*
X1420000Y155000D02*
X1422400Y152400D01*
D15*
X635000Y225000D03*
D14*
X395000Y155000D02*
X385000Y155000D01*
X395000Y155000D02*
X465000Y225000D01*
X605000Y225000D01*
X385000Y155000D02*
X381000Y152400D01*
X1410000Y130000D02*
X1420000Y130000D01*
X1410000Y130000D02*
X1405000Y135000D01*
X1335000Y135000D01*
X1240000Y40000D01*
X1015000Y65000D02*
X955000Y125000D01*
X405000Y125000D01*
X1420000Y130000D02*
X1422400Y127000D01*
D15*
X605000Y225000D03*
X1240000Y40000D03*
X1015000Y65000D03*
X405000Y125000D03*
D14*
X395000Y175000D02*
X385000Y175000D01*
X467500Y247500D02*
X470000Y250000D01*
X467500Y247500D02*
X395000Y175000D01*
X470000Y250000D02*
X470000Y265000D01*
X480000Y275000D01*
X385000Y175000D02*
X381000Y177800D01*
X480000Y275000D02*
X482600Y279400D01*
X1325000Y260000D02*
X1405000Y180000D01*
X1010000Y260000D02*
X990000Y240000D01*
X475000Y240000D01*
X467500Y247500D01*
D15*
X1405000Y180000D03*
X1325000Y260000D03*
X1010000Y260000D03*
D14*
X610000Y40000D02*
X610000Y30000D01*
X610000Y40000D02*
X605000Y45000D01*
X520000Y45000D01*
X505000Y60000D01*
X505000Y70000D01*
X515000Y80000D01*
X980000Y80000D01*
X1035000Y25000D01*
X1330000Y25000D01*
X1370000Y65000D01*
X1405000Y65000D01*
X1420000Y80000D01*
X610000Y30000D02*
X609600Y25400D01*
X1420000Y80000D02*
X1422400Y76200D01*
D15*
X80000Y200000D03*
D14*
X120000Y200000D01*
D15*
X120000Y200000D03*
D14*
X715000Y265000D02*
X715000Y275000D01*
X715000Y265000D02*
X710000Y260000D01*
X715000Y255000D01*
X985000Y255000D01*
X1005000Y275000D01*
X1405000Y275000D01*
X1410000Y280000D01*
X1435000Y280000D01*
X1485000Y230000D01*
X1885000Y230000D01*
X1905000Y210000D01*
X1905000Y170000D01*
X1890000Y155000D01*
X1880000Y155000D01*
X715000Y275000D02*
X711200Y279400D01*
X1879600Y152400D02*
X1880000Y155000D01*
X1880000Y130000D02*
X1895000Y130000D01*
X1920000Y155000D01*
X1920000Y215000D01*
X1890000Y245000D01*
X1490000Y245000D01*
X1390000Y215000D02*
X1345000Y260000D01*
X1880000Y130000D02*
X1879600Y127000D01*
D15*
X1490000Y245000D03*
X1390000Y215000D03*
X1345000Y260000D03*
D14*
X1050000Y175000D02*
X1045000Y175000D01*
X1050000Y175000D02*
X1065000Y160000D01*
X1195000Y160000D01*
X1215000Y180000D01*
X1045000Y175000D02*
X1041400Y177800D01*
X1215000Y180000D02*
X1219200Y177800D01*
X510000Y180000D02*
X510000Y205000D01*
X510000Y180000D02*
X515000Y175000D01*
X555000Y175000D02*
X565000Y185000D01*
X1030000Y185000D01*
X1040000Y175000D01*
X1041400Y177800D01*
X1520000Y115000D02*
X1845000Y115000D01*
X1520000Y115000D02*
X1430000Y25000D01*
X1360000Y25000D01*
X1355000Y30000D01*
X1845000Y115000D02*
X1847850Y114300D01*
D15*
X510000Y205000D03*
X515000Y175000D03*
X555000Y175000D03*
X1355000Y30000D03*
D14*
X1050000Y150000D02*
X1045000Y150000D01*
X1050000Y150000D02*
X1060000Y140000D01*
X1200000Y140000D01*
X1215000Y155000D01*
X1045000Y150000D02*
X1041400Y152400D01*
X1215000Y155000D02*
X1219200Y152400D01*
X640000Y200000D02*
X635000Y205000D01*
X640000Y200000D02*
X1020000Y200000D01*
X1835000Y90000D02*
X1845000Y90000D01*
X1835000Y90000D02*
X1830000Y95000D01*
X1520000Y95000D01*
X1450000Y25000D01*
X1845000Y90000D02*
X1847850Y88900D01*
D15*
X635000Y205000D03*
X1020000Y200000D03*
X1450000Y25000D03*
D14*
X525000Y60000D02*
X520000Y65000D01*
X525000Y60000D02*
X765000Y60000D01*
X785000Y40000D01*
X785000Y30000D01*
X787400Y25400D01*
D15*
X520000Y65000D03*
M02*
