G04 EAGLE Gerber RS-274X export*
G75*
%MOMM*%
%FSLAX34Y34*%
%LPD*%
%INSoldermask Bottom*%
%IPPOS*%
%AMOC8*
5,1,8,0,0,1.08239X$1,22.5*%
G01*
%ADD10C,3.203200*%
%ADD11C,0.553200*%
%ADD12R,1.819200X1.819200*%
%ADD13C,1.819200*%
%ADD14C,2.235200*%
%ADD15C,2.235200*%
%ADD16C,3.505200*%
%ADD17C,1.009600*%


D10*
X30000Y270000D03*
X30000Y110000D03*
D11*
X977900Y279400D03*
X977900Y25400D03*
X431800Y279400D03*
X431800Y25400D03*
D12*
X914400Y279400D03*
D13*
X889000Y279400D03*
X863600Y279400D03*
X838200Y279400D03*
X812800Y279400D03*
X787400Y279400D03*
X762000Y279400D03*
X736600Y279400D03*
X711200Y279400D03*
X685800Y279400D03*
X660400Y279400D03*
X635000Y279400D03*
X609600Y279400D03*
X584200Y279400D03*
X558800Y279400D03*
D12*
X482600Y25400D03*
X508000Y25400D03*
X533400Y25400D03*
X558800Y25400D03*
X584200Y25400D03*
X609600Y25400D03*
X635000Y25400D03*
X660400Y25400D03*
X685800Y25400D03*
X711200Y25400D03*
X736600Y25400D03*
X762000Y25400D03*
X787400Y25400D03*
X812800Y25400D03*
X838200Y25400D03*
X863600Y25400D03*
X889000Y25400D03*
X914400Y25400D03*
D13*
X533400Y279400D03*
X508000Y279400D03*
X482600Y279400D03*
X1879600Y203200D03*
X1879600Y177800D03*
X1879600Y152400D03*
X1879600Y127000D03*
X1879600Y101600D03*
X1879600Y76200D03*
X1879600Y50800D03*
X1879600Y25400D03*
D14*
X25400Y25400D03*
X25400Y50800D03*
D13*
X381000Y50800D03*
X381000Y76200D03*
X381000Y101600D03*
X381000Y127000D03*
X381000Y152400D03*
X381000Y177800D03*
X381000Y203200D03*
X381000Y228600D03*
X1041400Y50800D03*
X1041400Y76200D03*
X1041400Y101600D03*
X1041400Y127000D03*
X1041400Y152400D03*
X1041400Y177800D03*
X1041400Y203200D03*
X1041400Y228600D03*
X1219200Y50800D03*
X1219200Y76200D03*
X1219200Y101600D03*
X1219200Y127000D03*
X1219200Y152400D03*
X1219200Y177800D03*
X1219200Y203200D03*
X1219200Y228600D03*
D12*
X1422400Y254000D03*
D13*
X1422400Y228600D03*
X1422400Y203200D03*
X1422400Y152400D03*
X1422400Y127000D03*
X1422400Y101600D03*
X1422400Y76200D03*
X1422400Y50800D03*
X1422400Y177800D03*
X1847850Y38100D03*
X1847850Y63500D03*
X1847850Y88900D03*
X1847850Y114300D03*
X1847850Y139700D03*
X1847850Y165100D03*
D15*
X48260Y225400D02*
X27940Y225400D01*
X27940Y174600D02*
X48260Y174600D01*
X48260Y200000D02*
X27940Y200000D01*
D16*
X-111760Y200000D03*
D17*
X635000Y225000D03*
X605000Y225000D03*
X1240000Y40000D03*
X1015000Y65000D03*
X405000Y125000D03*
X1405000Y180000D03*
X1325000Y260000D03*
X1010000Y260000D03*
X80000Y200000D03*
X120000Y200000D03*
X1490000Y245000D03*
X1390000Y215000D03*
X1345000Y260000D03*
X510000Y205000D03*
X515000Y175000D03*
X555000Y175000D03*
X1355000Y30000D03*
X635000Y205000D03*
X1020000Y200000D03*
X1450000Y25000D03*
X520000Y65000D03*
M02*
