M48
;GenerationSoftware,Autodesk,EAGLE,9.6.2*%
;CreationDate,2021-08-18T07:32:07Z*%
FMAT,2
ICI,OFF
METRIC,TZ,000.000
T7C0.350
T6C0.400
T5C0.600
T4C1.016
T3C3.000
T2C3.302
%
G90
M71
T2
X-11176Y20000
T3
X3000Y11000
X3000Y27000
T4
X3810Y20000
X2540Y5080
X2540Y2540
X3810Y17460
X3810Y22540
T5
X38100Y7620
X104140Y12700
X104140Y10160
X104140Y7620
X104140Y5080
X38100Y22860
X91440Y2540
X38100Y20320
X38100Y17780
X38100Y15240
X38100Y12700
X38100Y10160
X50800Y27940
X38100Y5080
X86360Y2540
X53340Y27940
X187960Y2540
X187960Y5080
X187960Y7620
X187960Y10160
X187960Y12700
X187960Y15240
X187960Y17780
X187960Y20320
X48260Y27940
X142240Y22860
X184785Y16510
X184785Y13970
X184785Y11430
X184785Y8890
X184785Y6350
X184785Y3810
X142240Y17780
X142240Y5080
X142240Y7620
X142240Y10160
X142240Y12700
X142240Y15240
X142240Y20320
X104140Y15240
X142240Y25400
X121920Y22860
X121920Y20320
X121920Y17780
X121920Y15240
X121920Y12700
X121920Y10160
X121920Y7620
X121920Y5080
X104140Y22860
X104140Y20320
X104140Y17780
X88900Y2540
X91440Y27940
X88900Y27940
X86360Y27940
X83820Y27940
X81280Y27940
X78740Y27940
X76200Y27940
X73660Y27940
X71120Y27940
X68580Y27940
X66040Y27940
X63500Y27940
X60960Y27940
X58420Y27940
X55880Y27940
X50800Y2540
X83820Y2540
X81280Y2540
X78740Y2540
X76200Y2540
X73660Y2540
X71120Y2540
X68580Y2540
X63500Y2540
X60960Y2540
X58420Y2540
X55880Y2540
X53340Y2540
X48260Y2540
X66040Y2540
T6
X134500Y26000
X139000Y21500
X149000Y24500
X12000Y20000
X8000Y20000
X101000Y26000
X132500Y26000
X140500Y18000
X40500Y12500
X101500Y6500
X124000Y4000
X60500Y22500
X51000Y20500
X51500Y17500
X55500Y17500
X135500Y3000
X63500Y20500
X102000Y20000
X145000Y2500
X52000Y6500
X63500Y22500
T7
X97790Y27940
X97790Y2540
X43180Y27940
X43180Y2540
M30